G04 EAGLE Gerber RS-274X export*
G75*
%MOMM*%
%FSLAX34Y34*%
%LPD*%
%INBottom Copper*%
%IPPOS*%
%AMOC8*
5,1,8,0,0,1.08239X$1,22.5*%
G01*
%ADD10C,1.320800*%
%ADD11P,2.749271X8X22.500000*%
%ADD12C,1.524000*%
%ADD13C,0.756400*%
%ADD14C,0.600000*%
%ADD15C,0.406400*%
%ADD16C,0.152400*%
%ADD17C,0.254000*%

G36*
X367627Y10161D02*
X367627Y10161D01*
X367631Y10161D01*
X367749Y10181D01*
X367866Y10200D01*
X367869Y10202D01*
X367873Y10203D01*
X367978Y10260D01*
X368083Y10316D01*
X368086Y10318D01*
X368089Y10320D01*
X368170Y10408D01*
X368252Y10494D01*
X368254Y10498D01*
X368257Y10501D01*
X368306Y10609D01*
X368356Y10717D01*
X368356Y10721D01*
X368358Y10725D01*
X368370Y10843D01*
X368383Y10961D01*
X368382Y10965D01*
X368383Y10969D01*
X368356Y11086D01*
X368331Y11202D01*
X368329Y11205D01*
X368328Y11209D01*
X368266Y11310D01*
X368205Y11413D01*
X368202Y11416D01*
X368199Y11419D01*
X368108Y11495D01*
X368018Y11573D01*
X368014Y11574D01*
X368011Y11577D01*
X367858Y11646D01*
X367650Y11714D01*
X366225Y12440D01*
X364931Y13380D01*
X363800Y14511D01*
X362860Y15805D01*
X362134Y17230D01*
X361639Y18751D01*
X361389Y20330D01*
X361389Y27227D01*
X370788Y27227D01*
X370808Y27230D01*
X370827Y27228D01*
X370929Y27250D01*
X371031Y27267D01*
X371048Y27276D01*
X371068Y27280D01*
X371157Y27333D01*
X371248Y27382D01*
X371262Y27396D01*
X371279Y27406D01*
X371346Y27485D01*
X371417Y27560D01*
X371426Y27578D01*
X371439Y27593D01*
X371477Y27689D01*
X371521Y27783D01*
X371523Y27803D01*
X371531Y27821D01*
X371549Y27988D01*
X371549Y29512D01*
X371546Y29532D01*
X371548Y29551D01*
X371526Y29653D01*
X371509Y29755D01*
X371500Y29772D01*
X371496Y29792D01*
X371443Y29881D01*
X371394Y29972D01*
X371380Y29986D01*
X371370Y30003D01*
X371291Y30070D01*
X371216Y30141D01*
X371198Y30150D01*
X371183Y30163D01*
X371087Y30202D01*
X370993Y30245D01*
X370973Y30247D01*
X370955Y30255D01*
X370788Y30273D01*
X361389Y30273D01*
X361389Y37170D01*
X361639Y38749D01*
X362134Y40270D01*
X362860Y41695D01*
X363741Y42909D01*
X363747Y42919D01*
X363755Y42928D01*
X363802Y43028D01*
X363852Y43128D01*
X363853Y43140D01*
X363858Y43151D01*
X363871Y43261D01*
X363886Y43372D01*
X363884Y43384D01*
X363886Y43395D01*
X363862Y43504D01*
X363842Y43614D01*
X363836Y43624D01*
X363833Y43636D01*
X363776Y43731D01*
X363722Y43829D01*
X363713Y43837D01*
X363707Y43847D01*
X363623Y43919D01*
X363540Y43994D01*
X363529Y43999D01*
X363520Y44007D01*
X363416Y44049D01*
X363315Y44093D01*
X363303Y44094D01*
X363292Y44099D01*
X363125Y44117D01*
X362790Y44117D01*
X360646Y45005D01*
X359005Y46646D01*
X358117Y48790D01*
X358117Y51110D01*
X359005Y53254D01*
X360646Y54895D01*
X362790Y55783D01*
X365110Y55783D01*
X367254Y54895D01*
X367893Y54256D01*
X367967Y54203D01*
X368036Y54143D01*
X368067Y54131D01*
X368093Y54112D01*
X368180Y54085D01*
X368265Y54051D01*
X368306Y54047D01*
X368328Y54040D01*
X368360Y54041D01*
X368431Y54033D01*
X377441Y54033D01*
X380056Y51418D01*
X388650Y42823D01*
X388667Y42812D01*
X388679Y42796D01*
X388766Y42740D01*
X388850Y42680D01*
X388869Y42674D01*
X388886Y42663D01*
X388986Y42638D01*
X389085Y42608D01*
X389105Y42608D01*
X389124Y42603D01*
X389227Y42611D01*
X389331Y42614D01*
X389350Y42621D01*
X389370Y42622D01*
X389465Y42663D01*
X389562Y42698D01*
X389578Y42711D01*
X389596Y42719D01*
X389727Y42823D01*
X391472Y44568D01*
X395026Y46041D01*
X398874Y46041D01*
X402428Y44568D01*
X405148Y41848D01*
X406621Y38294D01*
X406621Y19206D01*
X405148Y15652D01*
X402428Y12932D01*
X399274Y11625D01*
X399192Y11574D01*
X399106Y11528D01*
X399088Y11509D01*
X399065Y11496D01*
X399003Y11421D01*
X398936Y11350D01*
X398925Y11326D01*
X398909Y11306D01*
X398874Y11215D01*
X398833Y11127D01*
X398830Y11101D01*
X398820Y11077D01*
X398816Y10979D01*
X398805Y10883D01*
X398811Y10857D01*
X398810Y10831D01*
X398837Y10737D01*
X398858Y10642D01*
X398871Y10620D01*
X398878Y10595D01*
X398934Y10515D01*
X398984Y10431D01*
X399004Y10414D01*
X399019Y10393D01*
X399097Y10334D01*
X399171Y10271D01*
X399195Y10261D01*
X399216Y10246D01*
X399309Y10216D01*
X399399Y10179D01*
X399431Y10176D01*
X399450Y10170D01*
X399483Y10170D01*
X399566Y10161D01*
X419734Y10161D01*
X419830Y10176D01*
X419927Y10186D01*
X419951Y10196D01*
X419977Y10200D01*
X420063Y10246D01*
X420152Y10286D01*
X420171Y10303D01*
X420194Y10316D01*
X420261Y10386D01*
X420333Y10452D01*
X420346Y10475D01*
X420364Y10494D01*
X420405Y10582D01*
X420452Y10668D01*
X420456Y10693D01*
X420467Y10717D01*
X420478Y10814D01*
X420495Y10910D01*
X420492Y10936D01*
X420495Y10961D01*
X420474Y11057D01*
X420460Y11153D01*
X420448Y11176D01*
X420442Y11202D01*
X420392Y11285D01*
X420348Y11372D01*
X420329Y11391D01*
X420316Y11413D01*
X420242Y11476D01*
X420173Y11544D01*
X420144Y11560D01*
X420129Y11573D01*
X420098Y11585D01*
X420026Y11625D01*
X416872Y12932D01*
X414152Y15652D01*
X412679Y19206D01*
X412679Y38294D01*
X414152Y41848D01*
X416872Y44568D01*
X417959Y45019D01*
X418059Y45081D01*
X418159Y45140D01*
X418163Y45145D01*
X418168Y45148D01*
X418243Y45239D01*
X418319Y45327D01*
X418321Y45333D01*
X418325Y45338D01*
X418367Y45446D01*
X418411Y45555D01*
X418412Y45563D01*
X418413Y45568D01*
X418414Y45586D01*
X418429Y45722D01*
X418429Y47126D01*
X426624Y55321D01*
X435757Y55321D01*
X435847Y55335D01*
X435938Y55343D01*
X435967Y55355D01*
X435999Y55360D01*
X436080Y55403D01*
X436164Y55439D01*
X436196Y55465D01*
X436217Y55476D01*
X436239Y55499D01*
X436295Y55544D01*
X437696Y56945D01*
X439840Y57833D01*
X442160Y57833D01*
X444304Y56945D01*
X445945Y55304D01*
X446833Y53160D01*
X446833Y50840D01*
X445945Y48696D01*
X444202Y46953D01*
X444145Y46874D01*
X444083Y46799D01*
X444073Y46774D01*
X444058Y46753D01*
X444030Y46660D01*
X443995Y46569D01*
X443994Y46543D01*
X443986Y46518D01*
X443988Y46421D01*
X443984Y46324D01*
X443991Y46298D01*
X443992Y46272D01*
X444026Y46181D01*
X444053Y46087D01*
X444068Y46066D01*
X444077Y46041D01*
X444138Y45965D01*
X444193Y45885D01*
X444214Y45870D01*
X444230Y45849D01*
X444312Y45796D01*
X444390Y45738D01*
X444415Y45730D01*
X444437Y45716D01*
X444532Y45692D01*
X444624Y45662D01*
X444650Y45663D01*
X444676Y45656D01*
X444773Y45664D01*
X444870Y45665D01*
X444902Y45674D01*
X444921Y45675D01*
X444951Y45688D01*
X445031Y45711D01*
X445826Y46041D01*
X449674Y46041D01*
X453228Y44568D01*
X453830Y43967D01*
X453888Y43925D01*
X453940Y43876D01*
X453987Y43854D01*
X454029Y43823D01*
X454098Y43802D01*
X454163Y43772D01*
X454215Y43766D01*
X454265Y43751D01*
X454336Y43753D01*
X454407Y43745D01*
X454458Y43756D01*
X454510Y43757D01*
X454578Y43782D01*
X454648Y43797D01*
X454693Y43824D01*
X454741Y43842D01*
X454797Y43887D01*
X454859Y43923D01*
X454893Y43963D01*
X454933Y43995D01*
X454972Y44056D01*
X455019Y44110D01*
X455038Y44158D01*
X455066Y44202D01*
X455084Y44272D01*
X455111Y44338D01*
X455119Y44410D01*
X455127Y44441D01*
X455125Y44464D01*
X455129Y44505D01*
X455129Y72207D01*
X455115Y72297D01*
X455107Y72388D01*
X455095Y72417D01*
X455090Y72449D01*
X455047Y72530D01*
X455011Y72614D01*
X454985Y72646D01*
X454974Y72667D01*
X454951Y72689D01*
X454906Y72745D01*
X453505Y74146D01*
X452617Y76290D01*
X452617Y78610D01*
X453505Y80754D01*
X455146Y82395D01*
X457290Y83283D01*
X459610Y83283D01*
X461754Y82395D01*
X463395Y80754D01*
X464283Y78610D01*
X464283Y76290D01*
X463395Y74146D01*
X461994Y72745D01*
X461941Y72671D01*
X461881Y72602D01*
X461869Y72571D01*
X461850Y72545D01*
X461823Y72458D01*
X461789Y72373D01*
X461785Y72332D01*
X461778Y72310D01*
X461779Y72278D01*
X461771Y72207D01*
X461771Y40074D01*
X457644Y35947D01*
X457591Y35874D01*
X457531Y35804D01*
X457519Y35774D01*
X457500Y35748D01*
X457473Y35661D01*
X457439Y35576D01*
X457435Y35535D01*
X457428Y35513D01*
X457429Y35480D01*
X457421Y35409D01*
X457421Y19206D01*
X455948Y15652D01*
X453228Y12932D01*
X450074Y11625D01*
X449992Y11574D01*
X449906Y11528D01*
X449888Y11509D01*
X449865Y11496D01*
X449803Y11421D01*
X449736Y11350D01*
X449725Y11326D01*
X449709Y11306D01*
X449674Y11215D01*
X449633Y11127D01*
X449630Y11101D01*
X449620Y11077D01*
X449616Y10979D01*
X449605Y10883D01*
X449611Y10857D01*
X449610Y10831D01*
X449637Y10737D01*
X449658Y10642D01*
X449671Y10620D01*
X449678Y10595D01*
X449734Y10515D01*
X449784Y10431D01*
X449804Y10414D01*
X449819Y10393D01*
X449897Y10334D01*
X449971Y10271D01*
X449995Y10261D01*
X450016Y10246D01*
X450109Y10216D01*
X450199Y10179D01*
X450231Y10176D01*
X450250Y10170D01*
X450283Y10170D01*
X450366Y10161D01*
X470534Y10161D01*
X470630Y10176D01*
X470727Y10186D01*
X470751Y10196D01*
X470777Y10200D01*
X470863Y10246D01*
X470952Y10286D01*
X470971Y10303D01*
X470994Y10316D01*
X471061Y10386D01*
X471133Y10452D01*
X471146Y10475D01*
X471164Y10494D01*
X471205Y10582D01*
X471252Y10668D01*
X471256Y10693D01*
X471267Y10717D01*
X471278Y10814D01*
X471295Y10910D01*
X471292Y10936D01*
X471295Y10961D01*
X471274Y11057D01*
X471260Y11153D01*
X471248Y11176D01*
X471242Y11202D01*
X471192Y11285D01*
X471148Y11372D01*
X471129Y11391D01*
X471116Y11413D01*
X471042Y11476D01*
X470973Y11544D01*
X470944Y11560D01*
X470929Y11573D01*
X470898Y11585D01*
X470826Y11625D01*
X467672Y12932D01*
X464952Y15652D01*
X463479Y19206D01*
X463479Y38294D01*
X464952Y41848D01*
X467672Y44568D01*
X471226Y46041D01*
X474368Y46041D01*
X474388Y46044D01*
X474407Y46042D01*
X474509Y46064D01*
X474611Y46080D01*
X474628Y46090D01*
X474648Y46094D01*
X474737Y46147D01*
X474828Y46196D01*
X474842Y46210D01*
X474859Y46220D01*
X474926Y46299D01*
X474998Y46374D01*
X475006Y46392D01*
X475019Y46407D01*
X475058Y46503D01*
X475101Y46597D01*
X475103Y46617D01*
X475111Y46635D01*
X475129Y46802D01*
X475129Y66807D01*
X475115Y66897D01*
X475107Y66988D01*
X475095Y67017D01*
X475090Y67049D01*
X475047Y67130D01*
X475011Y67214D01*
X474985Y67246D01*
X474974Y67267D01*
X474951Y67289D01*
X474906Y67345D01*
X473505Y68746D01*
X472617Y70890D01*
X472617Y73210D01*
X473505Y75354D01*
X475146Y76995D01*
X477290Y77883D01*
X479610Y77883D01*
X481754Y76995D01*
X483395Y75354D01*
X484283Y73210D01*
X484283Y70890D01*
X483395Y68746D01*
X481994Y67345D01*
X481941Y67271D01*
X481881Y67202D01*
X481869Y67171D01*
X481850Y67145D01*
X481823Y67058D01*
X481789Y66973D01*
X481785Y66932D01*
X481778Y66910D01*
X481779Y66878D01*
X481771Y66807D01*
X481771Y40980D01*
X481781Y40915D01*
X481782Y40850D01*
X481805Y40770D01*
X481810Y40737D01*
X481820Y40720D01*
X481829Y40689D01*
X482821Y38294D01*
X482821Y19206D01*
X481348Y15652D01*
X478628Y12932D01*
X475474Y11625D01*
X475392Y11574D01*
X475306Y11528D01*
X475288Y11509D01*
X475265Y11496D01*
X475203Y11421D01*
X475136Y11350D01*
X475125Y11326D01*
X475109Y11306D01*
X475074Y11215D01*
X475033Y11127D01*
X475030Y11101D01*
X475020Y11077D01*
X475016Y10979D01*
X475005Y10883D01*
X475011Y10857D01*
X475010Y10831D01*
X475037Y10737D01*
X475058Y10642D01*
X475071Y10620D01*
X475078Y10595D01*
X475134Y10515D01*
X475184Y10431D01*
X475204Y10414D01*
X475219Y10393D01*
X475297Y10334D01*
X475371Y10271D01*
X475395Y10261D01*
X475416Y10246D01*
X475509Y10216D01*
X475599Y10179D01*
X475631Y10176D01*
X475650Y10170D01*
X475683Y10170D01*
X475766Y10161D01*
X495934Y10161D01*
X496030Y10176D01*
X496127Y10186D01*
X496151Y10196D01*
X496177Y10200D01*
X496263Y10246D01*
X496352Y10286D01*
X496371Y10303D01*
X496394Y10316D01*
X496461Y10386D01*
X496533Y10452D01*
X496546Y10475D01*
X496564Y10494D01*
X496605Y10582D01*
X496652Y10668D01*
X496656Y10693D01*
X496667Y10717D01*
X496678Y10814D01*
X496695Y10910D01*
X496692Y10936D01*
X496695Y10961D01*
X496674Y11057D01*
X496660Y11153D01*
X496648Y11176D01*
X496642Y11202D01*
X496592Y11285D01*
X496548Y11372D01*
X496529Y11391D01*
X496516Y11413D01*
X496442Y11476D01*
X496373Y11544D01*
X496344Y11560D01*
X496329Y11573D01*
X496298Y11585D01*
X496226Y11625D01*
X493072Y12932D01*
X490352Y15652D01*
X488879Y19206D01*
X488879Y38294D01*
X490352Y41848D01*
X493072Y44568D01*
X494659Y45226D01*
X494759Y45287D01*
X494859Y45347D01*
X494863Y45352D01*
X494868Y45356D01*
X494942Y45445D01*
X495019Y45534D01*
X495021Y45540D01*
X495025Y45545D01*
X495067Y45653D01*
X495089Y45708D01*
X495101Y45734D01*
X495102Y45740D01*
X495111Y45763D01*
X495112Y45770D01*
X495113Y45775D01*
X495114Y45793D01*
X495129Y45929D01*
X495129Y61407D01*
X495115Y61497D01*
X495107Y61588D01*
X495095Y61617D01*
X495090Y61649D01*
X495047Y61730D01*
X495011Y61814D01*
X494985Y61846D01*
X494974Y61867D01*
X494951Y61889D01*
X494906Y61945D01*
X493505Y63346D01*
X492617Y65490D01*
X492617Y67810D01*
X493505Y69954D01*
X495146Y71595D01*
X497290Y72483D01*
X499610Y72483D01*
X501754Y71595D01*
X503395Y69954D01*
X504283Y67810D01*
X504283Y65490D01*
X503395Y63346D01*
X501994Y61945D01*
X501941Y61871D01*
X501881Y61802D01*
X501869Y61771D01*
X501850Y61745D01*
X501823Y61658D01*
X501789Y61573D01*
X501785Y61532D01*
X501778Y61510D01*
X501779Y61478D01*
X501771Y61407D01*
X501771Y46012D01*
X501790Y45896D01*
X501807Y45781D01*
X501809Y45776D01*
X501810Y45769D01*
X501865Y45667D01*
X501918Y45562D01*
X501923Y45557D01*
X501926Y45552D01*
X502010Y45472D01*
X502094Y45390D01*
X502100Y45386D01*
X502104Y45383D01*
X502121Y45375D01*
X502241Y45309D01*
X504028Y44568D01*
X506748Y41848D01*
X508221Y38294D01*
X508221Y19206D01*
X506748Y15652D01*
X504028Y12932D01*
X500874Y11625D01*
X500792Y11574D01*
X500706Y11528D01*
X500688Y11509D01*
X500665Y11496D01*
X500603Y11421D01*
X500536Y11350D01*
X500525Y11326D01*
X500509Y11306D01*
X500474Y11215D01*
X500433Y11127D01*
X500430Y11101D01*
X500420Y11077D01*
X500416Y10979D01*
X500405Y10883D01*
X500411Y10857D01*
X500410Y10831D01*
X500437Y10737D01*
X500458Y10642D01*
X500471Y10620D01*
X500478Y10595D01*
X500534Y10515D01*
X500584Y10431D01*
X500604Y10414D01*
X500619Y10393D01*
X500697Y10334D01*
X500771Y10271D01*
X500795Y10261D01*
X500816Y10246D01*
X500909Y10216D01*
X500999Y10179D01*
X501031Y10176D01*
X501050Y10170D01*
X501083Y10170D01*
X501166Y10161D01*
X527025Y10161D01*
X527044Y10164D01*
X527064Y10162D01*
X527165Y10184D01*
X527267Y10200D01*
X527285Y10210D01*
X527304Y10214D01*
X527393Y10267D01*
X527485Y10316D01*
X527498Y10330D01*
X527516Y10340D01*
X527583Y10419D01*
X527654Y10494D01*
X527663Y10512D01*
X527675Y10527D01*
X527714Y10623D01*
X527758Y10717D01*
X527760Y10737D01*
X527767Y10755D01*
X527786Y10922D01*
X527786Y88909D01*
X548475Y109599D01*
X603110Y109599D01*
X603200Y109614D01*
X603291Y109621D01*
X603321Y109633D01*
X603353Y109639D01*
X603433Y109681D01*
X603517Y109717D01*
X603549Y109743D01*
X603570Y109754D01*
X603592Y109777D01*
X603648Y109822D01*
X624616Y130790D01*
X624669Y130864D01*
X624729Y130933D01*
X624741Y130963D01*
X624760Y130989D01*
X624787Y131076D01*
X624821Y131161D01*
X624825Y131202D01*
X624832Y131225D01*
X624831Y131257D01*
X624839Y131328D01*
X624839Y389128D01*
X624836Y389148D01*
X624838Y389167D01*
X624816Y389269D01*
X624800Y389371D01*
X624790Y389388D01*
X624786Y389408D01*
X624733Y389497D01*
X624684Y389588D01*
X624670Y389602D01*
X624660Y389619D01*
X624581Y389686D01*
X624506Y389758D01*
X624488Y389766D01*
X624473Y389779D01*
X624377Y389818D01*
X624283Y389861D01*
X624263Y389863D01*
X624245Y389871D01*
X624078Y389889D01*
X10922Y389889D01*
X10902Y389886D01*
X10883Y389888D01*
X10781Y389866D01*
X10679Y389850D01*
X10662Y389840D01*
X10642Y389836D01*
X10553Y389783D01*
X10462Y389734D01*
X10448Y389720D01*
X10431Y389710D01*
X10364Y389631D01*
X10292Y389556D01*
X10284Y389538D01*
X10271Y389523D01*
X10232Y389427D01*
X10189Y389333D01*
X10187Y389313D01*
X10179Y389295D01*
X10161Y389128D01*
X10161Y10922D01*
X10164Y10902D01*
X10162Y10883D01*
X10184Y10781D01*
X10200Y10679D01*
X10210Y10662D01*
X10214Y10642D01*
X10267Y10553D01*
X10316Y10462D01*
X10330Y10448D01*
X10340Y10431D01*
X10419Y10364D01*
X10494Y10292D01*
X10512Y10284D01*
X10527Y10271D01*
X10623Y10232D01*
X10717Y10189D01*
X10737Y10187D01*
X10755Y10179D01*
X10922Y10161D01*
X367623Y10161D01*
X367627Y10161D01*
G37*
%LPC*%
G36*
X107840Y18167D02*
X107840Y18167D01*
X105696Y19055D01*
X104756Y19995D01*
X104683Y20048D01*
X104613Y20107D01*
X104583Y20119D01*
X104557Y20138D01*
X104470Y20165D01*
X104385Y20199D01*
X104344Y20204D01*
X104322Y20211D01*
X104289Y20210D01*
X104218Y20218D01*
X96866Y20218D01*
X96792Y20206D01*
X96717Y20203D01*
X96654Y20183D01*
X96624Y20178D01*
X96601Y20166D01*
X96557Y20152D01*
X96092Y19945D01*
X95515Y20167D01*
X95461Y20178D01*
X95409Y20199D01*
X95304Y20211D01*
X95275Y20217D01*
X95262Y20216D01*
X95242Y20218D01*
X94624Y20218D01*
X94511Y20331D01*
X94437Y20384D01*
X94368Y20444D01*
X94337Y20456D01*
X94311Y20475D01*
X94224Y20502D01*
X94139Y20536D01*
X94098Y20540D01*
X94076Y20547D01*
X94044Y20546D01*
X93973Y20554D01*
X93750Y20554D01*
X93389Y20914D01*
X93328Y20958D01*
X93273Y21010D01*
X93215Y21040D01*
X93190Y21058D01*
X93165Y21065D01*
X93124Y21087D01*
X92649Y21269D01*
X92398Y21834D01*
X92368Y21881D01*
X92346Y21932D01*
X92280Y22014D01*
X92263Y22039D01*
X92253Y22047D01*
X92241Y22063D01*
X80241Y34062D01*
X80162Y34119D01*
X80087Y34181D01*
X80063Y34191D01*
X80042Y34206D01*
X79949Y34234D01*
X79858Y34269D01*
X79832Y34271D01*
X79807Y34278D01*
X79709Y34276D01*
X79612Y34280D01*
X79587Y34273D01*
X79561Y34272D01*
X79469Y34238D01*
X79376Y34211D01*
X79354Y34196D01*
X79330Y34187D01*
X79254Y34126D01*
X79174Y34071D01*
X79158Y34050D01*
X79138Y34034D01*
X79085Y33952D01*
X79027Y33874D01*
X79019Y33849D01*
X79005Y33827D01*
X78981Y33732D01*
X78951Y33640D01*
X78951Y33614D01*
X78945Y33588D01*
X78952Y33491D01*
X78953Y33394D01*
X78962Y33362D01*
X78964Y33343D01*
X78977Y33313D01*
X79000Y33233D01*
X79258Y32610D01*
X79258Y30290D01*
X78370Y28146D01*
X76729Y26505D01*
X74585Y25617D01*
X72265Y25617D01*
X70121Y26505D01*
X68480Y28146D01*
X67592Y30290D01*
X67592Y32271D01*
X67578Y32361D01*
X67570Y32452D01*
X67558Y32482D01*
X67553Y32514D01*
X67510Y32595D01*
X67474Y32678D01*
X67448Y32711D01*
X67437Y32731D01*
X67414Y32753D01*
X67369Y32809D01*
X51476Y48702D01*
X51403Y48755D01*
X51333Y48815D01*
X51303Y48827D01*
X51277Y48846D01*
X51190Y48873D01*
X51105Y48907D01*
X51064Y48911D01*
X51042Y48918D01*
X51009Y48917D01*
X50938Y48925D01*
X40104Y48925D01*
X34143Y54887D01*
X34049Y54955D01*
X33954Y55025D01*
X33948Y55027D01*
X33943Y55030D01*
X33832Y55065D01*
X33720Y55101D01*
X33714Y55101D01*
X33708Y55103D01*
X33591Y55100D01*
X33474Y55099D01*
X33467Y55096D01*
X33462Y55096D01*
X33445Y55090D01*
X33313Y55052D01*
X32202Y54591D01*
X28758Y54591D01*
X25577Y55909D01*
X23143Y58343D01*
X21825Y61524D01*
X21825Y64968D01*
X23143Y68149D01*
X25577Y70583D01*
X28758Y71901D01*
X32202Y71901D01*
X35383Y70583D01*
X37817Y68149D01*
X39135Y64968D01*
X39135Y61524D01*
X38674Y60413D01*
X38648Y60299D01*
X38619Y60186D01*
X38619Y60179D01*
X38618Y60173D01*
X38629Y60057D01*
X38638Y59940D01*
X38641Y59935D01*
X38641Y59928D01*
X38689Y59821D01*
X38734Y59714D01*
X38739Y59708D01*
X38741Y59704D01*
X38754Y59690D01*
X38839Y59583D01*
X42633Y55790D01*
X42707Y55737D01*
X42776Y55677D01*
X42806Y55665D01*
X42832Y55646D01*
X42919Y55619D01*
X43004Y55585D01*
X43045Y55581D01*
X43067Y55574D01*
X43100Y55575D01*
X43171Y55567D01*
X54005Y55567D01*
X72066Y37506D01*
X72139Y37453D01*
X72209Y37393D01*
X72239Y37381D01*
X72265Y37362D01*
X72352Y37335D01*
X72437Y37301D01*
X72478Y37297D01*
X72500Y37290D01*
X72533Y37291D01*
X72604Y37283D01*
X74585Y37283D01*
X75208Y37025D01*
X75303Y37003D01*
X75396Y36974D01*
X75422Y36975D01*
X75447Y36969D01*
X75544Y36978D01*
X75641Y36980D01*
X75666Y36989D01*
X75692Y36992D01*
X75781Y37031D01*
X75872Y37065D01*
X75893Y37081D01*
X75917Y37092D01*
X75989Y37158D01*
X76065Y37219D01*
X76079Y37240D01*
X76098Y37258D01*
X76145Y37344D01*
X76198Y37425D01*
X76204Y37451D01*
X76217Y37474D01*
X76234Y37570D01*
X76258Y37664D01*
X76256Y37690D01*
X76260Y37716D01*
X76246Y37812D01*
X76238Y37909D01*
X76228Y37933D01*
X76224Y37959D01*
X76180Y38046D01*
X76142Y38136D01*
X76122Y38161D01*
X76113Y38178D01*
X76089Y38202D01*
X76037Y38266D01*
X72679Y41624D01*
X72679Y104309D01*
X72665Y104399D01*
X72657Y104490D01*
X72645Y104520D01*
X72640Y104552D01*
X72597Y104633D01*
X72561Y104716D01*
X72535Y104749D01*
X72524Y104769D01*
X72501Y104791D01*
X72456Y104847D01*
X67359Y109944D01*
X67286Y109997D01*
X67216Y110057D01*
X67186Y110069D01*
X67160Y110088D01*
X67073Y110115D01*
X66988Y110149D01*
X66947Y110153D01*
X66925Y110160D01*
X66892Y110159D01*
X66821Y110167D01*
X64840Y110167D01*
X62696Y111055D01*
X61055Y112696D01*
X60167Y114840D01*
X60167Y117160D01*
X61055Y119304D01*
X62696Y120945D01*
X64840Y121833D01*
X67160Y121833D01*
X69304Y120945D01*
X70945Y119304D01*
X71833Y117160D01*
X71833Y115179D01*
X71847Y115089D01*
X71855Y114998D01*
X71867Y114968D01*
X71872Y114936D01*
X71915Y114855D01*
X71951Y114772D01*
X71977Y114739D01*
X71988Y114719D01*
X72011Y114697D01*
X72056Y114641D01*
X77153Y109544D01*
X79380Y107316D01*
X79438Y107275D01*
X79490Y107225D01*
X79537Y107203D01*
X79579Y107173D01*
X79648Y107152D01*
X79713Y107122D01*
X79765Y107116D01*
X79815Y107101D01*
X79886Y107102D01*
X79957Y107095D01*
X80008Y107106D01*
X80060Y107107D01*
X80128Y107132D01*
X80198Y107147D01*
X80243Y107174D01*
X80291Y107191D01*
X80347Y107236D01*
X80409Y107273D01*
X80443Y107313D01*
X80483Y107345D01*
X80522Y107405D01*
X80569Y107460D01*
X80588Y107508D01*
X80616Y107552D01*
X80634Y107621D01*
X80661Y107688D01*
X80669Y107759D01*
X80677Y107791D01*
X80675Y107814D01*
X80679Y107855D01*
X80679Y155757D01*
X80665Y155847D01*
X80657Y155938D01*
X80645Y155967D01*
X80640Y155999D01*
X80597Y156080D01*
X80561Y156164D01*
X80535Y156196D01*
X80524Y156217D01*
X80501Y156239D01*
X80456Y156295D01*
X79055Y157696D01*
X78167Y159840D01*
X78167Y162160D01*
X79055Y164304D01*
X80696Y165945D01*
X82840Y166833D01*
X85160Y166833D01*
X87304Y165945D01*
X87380Y165869D01*
X87438Y165827D01*
X87490Y165778D01*
X87537Y165756D01*
X87579Y165725D01*
X87648Y165704D01*
X87713Y165674D01*
X87765Y165668D01*
X87814Y165653D01*
X87886Y165655D01*
X87957Y165647D01*
X88008Y165658D01*
X88060Y165659D01*
X88128Y165684D01*
X88198Y165699D01*
X88243Y165726D01*
X88291Y165744D01*
X88347Y165789D01*
X88409Y165825D01*
X88443Y165865D01*
X88483Y165898D01*
X88522Y165958D01*
X88569Y166012D01*
X88588Y166061D01*
X88616Y166104D01*
X88634Y166174D01*
X88661Y166241D01*
X88669Y166312D01*
X88677Y166343D01*
X88675Y166366D01*
X88679Y166407D01*
X88679Y188059D01*
X88665Y188149D01*
X88657Y188240D01*
X88645Y188270D01*
X88640Y188302D01*
X88597Y188383D01*
X88561Y188466D01*
X88535Y188499D01*
X88524Y188519D01*
X88501Y188541D01*
X88456Y188597D01*
X85847Y191207D01*
X85773Y191260D01*
X85704Y191319D01*
X85673Y191332D01*
X85647Y191350D01*
X85560Y191377D01*
X85475Y191411D01*
X85434Y191416D01*
X85412Y191423D01*
X85380Y191422D01*
X85309Y191430D01*
X83327Y191430D01*
X81183Y192318D01*
X79543Y193958D01*
X78655Y196102D01*
X78655Y198423D01*
X79543Y200567D01*
X81183Y202207D01*
X83327Y203095D01*
X85648Y203095D01*
X87792Y202207D01*
X89432Y200567D01*
X90320Y198423D01*
X90320Y196441D01*
X90335Y196351D01*
X90342Y196260D01*
X90355Y196231D01*
X90360Y196199D01*
X90403Y196118D01*
X90438Y196034D01*
X90464Y196002D01*
X90475Y195981D01*
X90498Y195959D01*
X90543Y195903D01*
X95321Y191126D01*
X95321Y66468D01*
X95322Y66459D01*
X95322Y66454D01*
X95327Y66429D01*
X95335Y66378D01*
X95343Y66287D01*
X95355Y66258D01*
X95360Y66226D01*
X95403Y66145D01*
X95439Y66061D01*
X95465Y66029D01*
X95476Y66008D01*
X95499Y65986D01*
X95544Y65930D01*
X97020Y64454D01*
X97908Y62310D01*
X97908Y59990D01*
X97020Y57846D01*
X95379Y56205D01*
X93187Y55297D01*
X93104Y55246D01*
X93018Y55200D01*
X93000Y55182D01*
X92978Y55168D01*
X92916Y55092D01*
X92849Y55022D01*
X92838Y54998D01*
X92821Y54978D01*
X92786Y54887D01*
X92745Y54799D01*
X92742Y54773D01*
X92733Y54749D01*
X92729Y54651D01*
X92718Y54555D01*
X92724Y54529D01*
X92722Y54503D01*
X92750Y54409D01*
X92770Y54314D01*
X92784Y54292D01*
X92791Y54267D01*
X92846Y54187D01*
X92896Y54103D01*
X92916Y54086D01*
X92931Y54065D01*
X93009Y54006D01*
X93083Y53943D01*
X93108Y53933D01*
X93129Y53918D01*
X93221Y53888D01*
X93312Y53851D01*
X93344Y53848D01*
X93362Y53842D01*
X93396Y53842D01*
X93478Y53833D01*
X95160Y53833D01*
X97304Y52945D01*
X98945Y51304D01*
X99833Y49160D01*
X99833Y46840D01*
X98945Y44696D01*
X97304Y43055D01*
X95160Y42167D01*
X92840Y42167D01*
X90696Y43055D01*
X89055Y44696D01*
X88167Y46840D01*
X88167Y47821D01*
X88153Y47911D01*
X88145Y48002D01*
X88133Y48032D01*
X88128Y48064D01*
X88085Y48145D01*
X88049Y48228D01*
X88023Y48261D01*
X88012Y48281D01*
X87989Y48303D01*
X87944Y48359D01*
X80620Y55684D01*
X80562Y55725D01*
X80510Y55775D01*
X80463Y55797D01*
X80421Y55827D01*
X80352Y55848D01*
X80287Y55878D01*
X80235Y55884D01*
X80185Y55899D01*
X80114Y55898D01*
X80043Y55905D01*
X79992Y55894D01*
X79940Y55893D01*
X79872Y55868D01*
X79802Y55853D01*
X79757Y55826D01*
X79709Y55809D01*
X79653Y55764D01*
X79591Y55727D01*
X79557Y55687D01*
X79517Y55655D01*
X79478Y55595D01*
X79431Y55540D01*
X79412Y55492D01*
X79384Y55448D01*
X79366Y55379D01*
X79339Y55312D01*
X79331Y55241D01*
X79323Y55209D01*
X79325Y55186D01*
X79321Y55145D01*
X79321Y44691D01*
X79335Y44601D01*
X79343Y44510D01*
X79355Y44480D01*
X79360Y44448D01*
X79403Y44367D01*
X79439Y44284D01*
X79465Y44251D01*
X79476Y44231D01*
X79499Y44209D01*
X79544Y44153D01*
X96614Y27082D01*
X96688Y27029D01*
X96757Y26970D01*
X96788Y26957D01*
X96814Y26939D01*
X96901Y26912D01*
X96986Y26878D01*
X97027Y26873D01*
X97049Y26866D01*
X97081Y26867D01*
X97152Y26859D01*
X103362Y26859D01*
X103477Y26878D01*
X103593Y26895D01*
X103599Y26898D01*
X103605Y26899D01*
X103708Y26953D01*
X103813Y27007D01*
X103817Y27011D01*
X103822Y27014D01*
X103902Y27098D01*
X103985Y27182D01*
X103988Y27189D01*
X103992Y27192D01*
X104000Y27209D01*
X104048Y27296D01*
X105696Y28945D01*
X107840Y29833D01*
X110160Y29833D01*
X112304Y28945D01*
X113945Y27304D01*
X114833Y25160D01*
X114833Y22840D01*
X113945Y20696D01*
X112304Y19055D01*
X110160Y18167D01*
X107840Y18167D01*
G37*
%LPD*%
%LPC*%
G36*
X274890Y42967D02*
X274890Y42967D01*
X272746Y43855D01*
X271105Y45496D01*
X270217Y47640D01*
X270217Y49960D01*
X271105Y52104D01*
X272746Y53745D01*
X274890Y54633D01*
X276871Y54633D01*
X276961Y54647D01*
X277052Y54655D01*
X277082Y54667D01*
X277114Y54672D01*
X277195Y54715D01*
X277278Y54751D01*
X277311Y54777D01*
X277331Y54788D01*
X277353Y54811D01*
X277409Y54856D01*
X319074Y96521D01*
X405509Y96521D01*
X405599Y96535D01*
X405690Y96543D01*
X405720Y96555D01*
X405752Y96560D01*
X405833Y96603D01*
X405916Y96639D01*
X405949Y96665D01*
X405969Y96676D01*
X405991Y96699D01*
X406047Y96744D01*
X439456Y130153D01*
X439509Y130226D01*
X439569Y130296D01*
X439581Y130326D01*
X439600Y130352D01*
X439627Y130439D01*
X439661Y130524D01*
X439665Y130565D01*
X439672Y130587D01*
X439671Y130620D01*
X439679Y130691D01*
X439679Y267376D01*
X474456Y302153D01*
X474509Y302226D01*
X474569Y302296D01*
X474581Y302326D01*
X474600Y302352D01*
X474627Y302439D01*
X474661Y302524D01*
X474665Y302565D01*
X474672Y302587D01*
X474671Y302620D01*
X474679Y302691D01*
X474679Y342876D01*
X478257Y346453D01*
X478310Y346527D01*
X478369Y346596D01*
X478382Y346627D01*
X478400Y346653D01*
X478427Y346740D01*
X478461Y346825D01*
X478466Y346866D01*
X478473Y346888D01*
X478472Y346920D01*
X478480Y346991D01*
X478480Y348973D01*
X479368Y351117D01*
X481008Y352757D01*
X483152Y353645D01*
X485473Y353645D01*
X487617Y352757D01*
X489257Y351117D01*
X490145Y348973D01*
X490145Y346652D01*
X489257Y344508D01*
X487617Y342868D01*
X485473Y341980D01*
X483491Y341980D01*
X483401Y341965D01*
X483310Y341958D01*
X483281Y341945D01*
X483249Y341940D01*
X483168Y341897D01*
X483084Y341862D01*
X483052Y341836D01*
X483031Y341825D01*
X483009Y341802D01*
X482953Y341757D01*
X481544Y340347D01*
X481491Y340274D01*
X481431Y340204D01*
X481419Y340174D01*
X481400Y340148D01*
X481373Y340061D01*
X481339Y339976D01*
X481335Y339935D01*
X481328Y339913D01*
X481329Y339880D01*
X481321Y339809D01*
X481321Y299624D01*
X446544Y264847D01*
X446491Y264774D01*
X446431Y264704D01*
X446419Y264674D01*
X446400Y264648D01*
X446373Y264561D01*
X446339Y264476D01*
X446335Y264435D01*
X446328Y264413D01*
X446329Y264380D01*
X446321Y264309D01*
X446321Y127624D01*
X408576Y89879D01*
X322141Y89879D01*
X322051Y89865D01*
X321960Y89857D01*
X321930Y89845D01*
X321898Y89840D01*
X321817Y89797D01*
X321734Y89761D01*
X321701Y89735D01*
X321681Y89724D01*
X321659Y89701D01*
X321603Y89656D01*
X282106Y50159D01*
X282053Y50086D01*
X281993Y50016D01*
X281981Y49986D01*
X281962Y49960D01*
X281935Y49873D01*
X281901Y49788D01*
X281897Y49747D01*
X281890Y49725D01*
X281891Y49692D01*
X281883Y49621D01*
X281883Y47640D01*
X280995Y45496D01*
X279354Y43855D01*
X277210Y42967D01*
X274890Y42967D01*
G37*
%LPD*%
%LPC*%
G36*
X314376Y11709D02*
X314376Y11709D01*
X310822Y13182D01*
X308102Y15902D01*
X306629Y19456D01*
X306629Y38544D01*
X308102Y42098D01*
X310822Y44818D01*
X314376Y46291D01*
X318224Y46291D01*
X321778Y44818D01*
X324421Y42175D01*
X324437Y42164D01*
X324450Y42148D01*
X324537Y42092D01*
X324621Y42032D01*
X324640Y42026D01*
X324657Y42015D01*
X324757Y41990D01*
X324856Y41960D01*
X324876Y41960D01*
X324895Y41955D01*
X324998Y41963D01*
X325102Y41966D01*
X325121Y41973D01*
X325140Y41974D01*
X325235Y42015D01*
X325333Y42050D01*
X325348Y42063D01*
X325367Y42071D01*
X325498Y42175D01*
X332964Y49642D01*
X333017Y49716D01*
X333077Y49786D01*
X333089Y49816D01*
X333108Y49842D01*
X333135Y49929D01*
X333169Y50014D01*
X333173Y50055D01*
X333180Y50077D01*
X333179Y50109D01*
X333187Y50180D01*
X333187Y74189D01*
X333168Y74304D01*
X333151Y74420D01*
X333149Y74426D01*
X333148Y74432D01*
X333094Y74534D01*
X333040Y74639D01*
X333035Y74644D01*
X333032Y74649D01*
X332948Y74729D01*
X332864Y74812D01*
X332858Y74815D01*
X332854Y74819D01*
X332837Y74826D01*
X332717Y74892D01*
X332696Y74901D01*
X331055Y76542D01*
X330167Y78686D01*
X330167Y81006D01*
X331055Y83150D01*
X332696Y84791D01*
X334840Y85679D01*
X337160Y85679D01*
X339304Y84791D01*
X340945Y83150D01*
X341833Y81006D01*
X341833Y78686D01*
X340945Y76542D01*
X339304Y74901D01*
X339283Y74892D01*
X339183Y74831D01*
X339083Y74771D01*
X339079Y74766D01*
X339074Y74763D01*
X338999Y74673D01*
X338923Y74584D01*
X338921Y74578D01*
X338917Y74573D01*
X338875Y74464D01*
X338831Y74356D01*
X338830Y74348D01*
X338829Y74344D01*
X338828Y74325D01*
X338813Y74189D01*
X338813Y47535D01*
X338713Y47436D01*
X338657Y47357D01*
X338595Y47282D01*
X338585Y47257D01*
X338570Y47236D01*
X338541Y47143D01*
X338506Y47052D01*
X338505Y47026D01*
X338498Y47001D01*
X338500Y46904D01*
X338496Y46806D01*
X338503Y46781D01*
X338504Y46755D01*
X338537Y46664D01*
X338564Y46570D01*
X338579Y46549D01*
X338588Y46524D01*
X338649Y46448D01*
X338705Y46368D01*
X338726Y46352D01*
X338742Y46332D01*
X338824Y46279D01*
X338902Y46221D01*
X338927Y46213D01*
X338949Y46199D01*
X339043Y46175D01*
X339136Y46145D01*
X339162Y46145D01*
X339187Y46139D01*
X339285Y46146D01*
X339382Y46147D01*
X339413Y46156D01*
X339433Y46158D01*
X339463Y46171D01*
X339543Y46194D01*
X339776Y46291D01*
X343624Y46291D01*
X347178Y44818D01*
X347888Y44109D01*
X347946Y44067D01*
X347998Y44018D01*
X348045Y43996D01*
X348087Y43965D01*
X348156Y43944D01*
X348221Y43914D01*
X348273Y43908D01*
X348323Y43893D01*
X348394Y43895D01*
X348465Y43887D01*
X348516Y43898D01*
X348568Y43899D01*
X348636Y43924D01*
X348706Y43939D01*
X348751Y43966D01*
X348799Y43984D01*
X348855Y44029D01*
X348917Y44065D01*
X348951Y44105D01*
X348991Y44137D01*
X349030Y44198D01*
X349077Y44252D01*
X349096Y44300D01*
X349124Y44344D01*
X349142Y44414D01*
X349169Y44480D01*
X349177Y44552D01*
X349185Y44583D01*
X349183Y44606D01*
X349187Y44647D01*
X349187Y74189D01*
X349168Y74304D01*
X349151Y74420D01*
X349149Y74426D01*
X349148Y74432D01*
X349094Y74534D01*
X349040Y74639D01*
X349035Y74644D01*
X349032Y74649D01*
X348948Y74729D01*
X348864Y74812D01*
X348858Y74815D01*
X348854Y74819D01*
X348837Y74826D01*
X348717Y74892D01*
X348696Y74901D01*
X347055Y76542D01*
X346167Y78686D01*
X346167Y81006D01*
X347055Y83150D01*
X348696Y84791D01*
X350840Y85679D01*
X353160Y85679D01*
X355304Y84791D01*
X356945Y83150D01*
X357833Y81006D01*
X357833Y78686D01*
X356945Y76542D01*
X355304Y74901D01*
X355283Y74892D01*
X355183Y74831D01*
X355083Y74771D01*
X355079Y74766D01*
X355074Y74763D01*
X354999Y74673D01*
X354923Y74584D01*
X354921Y74578D01*
X354917Y74573D01*
X354875Y74464D01*
X354831Y74356D01*
X354830Y74348D01*
X354829Y74344D01*
X354828Y74325D01*
X354813Y74189D01*
X354813Y38135D01*
X351594Y34916D01*
X351541Y34842D01*
X351481Y34773D01*
X351469Y34742D01*
X351450Y34716D01*
X351423Y34629D01*
X351389Y34544D01*
X351385Y34503D01*
X351378Y34481D01*
X351379Y34449D01*
X351371Y34378D01*
X351371Y19456D01*
X349898Y15902D01*
X347178Y13182D01*
X343624Y11709D01*
X339776Y11709D01*
X336222Y13182D01*
X333502Y15902D01*
X332029Y19456D01*
X332029Y38544D01*
X332126Y38777D01*
X332148Y38872D01*
X332177Y38965D01*
X332176Y38991D01*
X332182Y39016D01*
X332173Y39113D01*
X332170Y39211D01*
X332161Y39235D01*
X332159Y39261D01*
X332119Y39350D01*
X332086Y39442D01*
X332070Y39462D01*
X332059Y39486D01*
X331993Y39558D01*
X331932Y39634D01*
X331910Y39648D01*
X331893Y39667D01*
X331807Y39714D01*
X331725Y39767D01*
X331700Y39773D01*
X331677Y39786D01*
X331581Y39803D01*
X331487Y39827D01*
X331461Y39825D01*
X331435Y39829D01*
X331339Y39815D01*
X331242Y39808D01*
X331218Y39797D01*
X331192Y39794D01*
X331105Y39749D01*
X331015Y39711D01*
X330990Y39691D01*
X330972Y39682D01*
X330949Y39659D01*
X330884Y39607D01*
X326194Y34916D01*
X326141Y34842D01*
X326081Y34773D01*
X326069Y34742D01*
X326050Y34716D01*
X326023Y34629D01*
X325989Y34544D01*
X325985Y34503D01*
X325978Y34481D01*
X325979Y34449D01*
X325971Y34378D01*
X325971Y19456D01*
X324498Y15902D01*
X321778Y13182D01*
X318224Y11709D01*
X314376Y11709D01*
G37*
%LPD*%
%LPC*%
G36*
X239902Y170967D02*
X239902Y170967D01*
X237758Y171855D01*
X236118Y173496D01*
X235230Y175640D01*
X235230Y177960D01*
X236118Y180104D01*
X237519Y181505D01*
X237572Y181579D01*
X237631Y181648D01*
X237644Y181679D01*
X237662Y181705D01*
X237689Y181792D01*
X237723Y181877D01*
X237728Y181918D01*
X237735Y181940D01*
X237734Y181972D01*
X237742Y182043D01*
X237742Y226247D01*
X237727Y226337D01*
X237720Y226428D01*
X237707Y226457D01*
X237702Y226489D01*
X237659Y226570D01*
X237624Y226654D01*
X237598Y226686D01*
X237587Y226707D01*
X237564Y226729D01*
X237519Y226785D01*
X225847Y238456D01*
X225774Y238509D01*
X225704Y238569D01*
X225674Y238581D01*
X225648Y238600D01*
X225561Y238627D01*
X225476Y238661D01*
X225435Y238665D01*
X225413Y238672D01*
X225380Y238671D01*
X225309Y238679D01*
X168624Y238679D01*
X157679Y249624D01*
X157679Y302376D01*
X163477Y308173D01*
X182574Y308173D01*
X182664Y308188D01*
X182755Y308195D01*
X182785Y308208D01*
X182817Y308213D01*
X182898Y308256D01*
X182981Y308291D01*
X183014Y308317D01*
X183034Y308328D01*
X183056Y308351D01*
X183112Y308396D01*
X184513Y309797D01*
X186657Y310685D01*
X188978Y310685D01*
X191122Y309797D01*
X192762Y308157D01*
X193650Y306013D01*
X193650Y303692D01*
X192762Y301548D01*
X191122Y299908D01*
X188978Y299020D01*
X186657Y299020D01*
X184513Y299908D01*
X183112Y301309D01*
X183039Y301362D01*
X182969Y301421D01*
X182939Y301434D01*
X182913Y301452D01*
X182826Y301479D01*
X182741Y301513D01*
X182700Y301518D01*
X182678Y301525D01*
X182645Y301524D01*
X182574Y301532D01*
X166543Y301532D01*
X166453Y301517D01*
X166362Y301510D01*
X166333Y301497D01*
X166301Y301492D01*
X166220Y301449D01*
X166136Y301414D01*
X166104Y301388D01*
X166083Y301377D01*
X166061Y301354D01*
X166005Y301309D01*
X164544Y299847D01*
X164491Y299774D01*
X164431Y299704D01*
X164419Y299674D01*
X164400Y299648D01*
X164373Y299561D01*
X164339Y299476D01*
X164335Y299435D01*
X164328Y299413D01*
X164329Y299380D01*
X164321Y299309D01*
X164321Y252691D01*
X164335Y252601D01*
X164343Y252510D01*
X164355Y252480D01*
X164360Y252448D01*
X164403Y252367D01*
X164439Y252284D01*
X164465Y252251D01*
X164476Y252231D01*
X164499Y252209D01*
X164544Y252153D01*
X171153Y245544D01*
X171226Y245491D01*
X171296Y245431D01*
X171326Y245419D01*
X171352Y245400D01*
X171439Y245373D01*
X171524Y245339D01*
X171565Y245335D01*
X171587Y245328D01*
X171620Y245329D01*
X171691Y245321D01*
X228376Y245321D01*
X244383Y229313D01*
X244383Y182043D01*
X244398Y181953D01*
X244405Y181862D01*
X244418Y181833D01*
X244423Y181801D01*
X244466Y181720D01*
X244501Y181636D01*
X244527Y181604D01*
X244538Y181583D01*
X244561Y181561D01*
X244606Y181505D01*
X246007Y180104D01*
X246895Y177960D01*
X246895Y175640D01*
X246007Y173496D01*
X244367Y171855D01*
X242223Y170967D01*
X239902Y170967D01*
G37*
%LPD*%
%LPC*%
G36*
X417177Y134580D02*
X417177Y134580D01*
X415033Y135468D01*
X413393Y137108D01*
X412505Y139252D01*
X412505Y141573D01*
X413393Y143717D01*
X414794Y145118D01*
X414847Y145191D01*
X414878Y145228D01*
X414885Y145235D01*
X414886Y145237D01*
X414906Y145261D01*
X414919Y145291D01*
X414937Y145317D01*
X414964Y145404D01*
X414968Y145413D01*
X414989Y145458D01*
X414990Y145468D01*
X414998Y145489D01*
X415003Y145530D01*
X415010Y145552D01*
X415009Y145585D01*
X415017Y145656D01*
X415017Y153059D01*
X415002Y153149D01*
X414995Y153240D01*
X414982Y153270D01*
X414977Y153302D01*
X414934Y153383D01*
X414899Y153466D01*
X414873Y153499D01*
X414862Y153519D01*
X414839Y153541D01*
X414794Y153597D01*
X288697Y279694D01*
X288623Y279747D01*
X288554Y279807D01*
X288523Y279819D01*
X288497Y279838D01*
X288410Y279865D01*
X288325Y279899D01*
X288284Y279903D01*
X288262Y279910D01*
X288230Y279909D01*
X288159Y279917D01*
X286177Y279917D01*
X284033Y280805D01*
X282393Y282446D01*
X281505Y284590D01*
X281505Y286910D01*
X282393Y289054D01*
X284033Y290695D01*
X286177Y291583D01*
X288498Y291583D01*
X290642Y290695D01*
X292282Y289054D01*
X293170Y286910D01*
X293170Y284929D01*
X293185Y284839D01*
X293192Y284748D01*
X293205Y284718D01*
X293210Y284686D01*
X293253Y284605D01*
X293288Y284522D01*
X293314Y284489D01*
X293325Y284469D01*
X293348Y284447D01*
X293393Y284391D01*
X421658Y156126D01*
X421658Y145656D01*
X421661Y145639D01*
X421659Y145624D01*
X421674Y145558D01*
X421680Y145475D01*
X421693Y145445D01*
X421698Y145413D01*
X421710Y145390D01*
X421712Y145383D01*
X421730Y145352D01*
X421741Y145332D01*
X421776Y145249D01*
X421802Y145216D01*
X421813Y145196D01*
X421836Y145174D01*
X421881Y145118D01*
X423282Y143717D01*
X424170Y141573D01*
X424170Y139252D01*
X423282Y137108D01*
X421642Y135468D01*
X419498Y134580D01*
X417177Y134580D01*
G37*
%LPD*%
%LPC*%
G36*
X24740Y234767D02*
X24740Y234767D01*
X22596Y235655D01*
X20955Y237296D01*
X20067Y239440D01*
X20067Y241760D01*
X20955Y243904D01*
X22596Y245545D01*
X24344Y246269D01*
X24400Y246303D01*
X24460Y246329D01*
X24525Y246381D01*
X24553Y246398D01*
X24566Y246413D01*
X24591Y246434D01*
X43326Y265169D01*
X43379Y265243D01*
X43439Y265313D01*
X43451Y265343D01*
X43470Y265369D01*
X43497Y265456D01*
X43531Y265541D01*
X43535Y265582D01*
X43542Y265604D01*
X43541Y265636D01*
X43549Y265707D01*
X43549Y340000D01*
X43539Y340065D01*
X43538Y340131D01*
X43515Y340211D01*
X43510Y340243D01*
X43500Y340260D01*
X43491Y340292D01*
X42767Y342040D01*
X42767Y344360D01*
X43655Y346504D01*
X45296Y348145D01*
X47440Y349033D01*
X49760Y349033D01*
X51904Y348145D01*
X53545Y346504D01*
X54433Y344360D01*
X54433Y342040D01*
X53709Y340292D01*
X53694Y340228D01*
X53669Y340167D01*
X53660Y340084D01*
X53653Y340052D01*
X53654Y340033D01*
X53651Y340000D01*
X53651Y261208D01*
X31734Y239291D01*
X31696Y239238D01*
X31650Y239191D01*
X31609Y239118D01*
X31590Y239091D01*
X31585Y239073D01*
X31569Y239044D01*
X30845Y237296D01*
X29204Y235655D01*
X27060Y234767D01*
X24740Y234767D01*
G37*
%LPD*%
%LPC*%
G36*
X173577Y288142D02*
X173577Y288142D01*
X171433Y289030D01*
X169793Y290671D01*
X168905Y292815D01*
X168905Y295135D01*
X169793Y297279D01*
X171433Y298920D01*
X173577Y299808D01*
X175898Y299808D01*
X178042Y298920D01*
X179443Y297519D01*
X179516Y297466D01*
X179586Y297406D01*
X179616Y297394D01*
X179642Y297375D01*
X179729Y297348D01*
X179814Y297314D01*
X179855Y297310D01*
X179877Y297303D01*
X179910Y297304D01*
X179981Y297296D01*
X215834Y297296D01*
X215924Y297310D01*
X216015Y297318D01*
X216045Y297330D01*
X216077Y297335D01*
X216158Y297378D01*
X216241Y297414D01*
X216274Y297440D01*
X216294Y297451D01*
X216316Y297474D01*
X216372Y297519D01*
X226244Y307391D01*
X226297Y307464D01*
X226357Y307534D01*
X226369Y307564D01*
X226388Y307590D01*
X226415Y307677D01*
X226449Y307762D01*
X226453Y307803D01*
X226460Y307825D01*
X226459Y307858D01*
X226467Y307929D01*
X226467Y309910D01*
X227355Y312054D01*
X228996Y313695D01*
X231140Y314583D01*
X233460Y314583D01*
X235604Y313695D01*
X237245Y312054D01*
X237977Y310286D01*
X238029Y310203D01*
X238074Y310117D01*
X238093Y310099D01*
X238107Y310077D01*
X238182Y310014D01*
X238252Y309947D01*
X238276Y309936D01*
X238296Y309920D01*
X238387Y309885D01*
X238476Y309844D01*
X238502Y309841D01*
X238526Y309832D01*
X238623Y309827D01*
X238720Y309817D01*
X238745Y309822D01*
X238772Y309821D01*
X238865Y309848D01*
X238960Y309869D01*
X238983Y309882D01*
X239008Y309890D01*
X239088Y309945D01*
X239171Y309995D01*
X239188Y310015D01*
X239210Y310030D01*
X239268Y310108D01*
X239331Y310182D01*
X239341Y310206D01*
X239357Y310227D01*
X239387Y310320D01*
X239423Y310410D01*
X239427Y310443D01*
X239433Y310461D01*
X239433Y310494D01*
X239442Y310577D01*
X239442Y326547D01*
X239427Y326637D01*
X239420Y326728D01*
X239407Y326757D01*
X239402Y326789D01*
X239359Y326870D01*
X239324Y326954D01*
X239298Y326986D01*
X239287Y327007D01*
X239264Y327029D01*
X239219Y327085D01*
X228935Y337369D01*
X228861Y337422D01*
X228792Y337481D01*
X228761Y337494D01*
X228735Y337512D01*
X228648Y337539D01*
X228563Y337573D01*
X228522Y337578D01*
X228500Y337585D01*
X228468Y337584D01*
X228397Y337592D01*
X223906Y337592D01*
X223816Y337577D01*
X223725Y337570D01*
X223695Y337557D01*
X223663Y337552D01*
X223582Y337509D01*
X223499Y337474D01*
X223466Y337448D01*
X223446Y337437D01*
X223424Y337414D01*
X223368Y337369D01*
X221967Y335968D01*
X219823Y335080D01*
X217502Y335080D01*
X215358Y335968D01*
X213718Y337608D01*
X212830Y339752D01*
X212830Y342073D01*
X213718Y344217D01*
X215358Y345857D01*
X217502Y346745D01*
X219823Y346745D01*
X221967Y345857D01*
X223368Y344456D01*
X223441Y344403D01*
X223511Y344344D01*
X223541Y344331D01*
X223567Y344313D01*
X223654Y344286D01*
X223739Y344252D01*
X223780Y344247D01*
X223802Y344240D01*
X223835Y344241D01*
X223906Y344233D01*
X228222Y344233D01*
X228312Y344248D01*
X228403Y344255D01*
X228432Y344268D01*
X228464Y344273D01*
X228545Y344316D01*
X228557Y344321D01*
X231376Y344321D01*
X246083Y329613D01*
X246083Y299593D01*
X246098Y299503D01*
X246105Y299412D01*
X246118Y299383D01*
X246123Y299351D01*
X246166Y299270D01*
X246201Y299186D01*
X246227Y299154D01*
X246238Y299133D01*
X246261Y299111D01*
X246306Y299055D01*
X247707Y297654D01*
X248595Y295510D01*
X248595Y293190D01*
X247707Y291046D01*
X246067Y289405D01*
X243923Y288517D01*
X241602Y288517D01*
X239458Y289405D01*
X237818Y291046D01*
X236930Y293190D01*
X236930Y295510D01*
X237818Y297654D01*
X239219Y299055D01*
X239272Y299129D01*
X239331Y299198D01*
X239344Y299229D01*
X239362Y299255D01*
X239389Y299342D01*
X239423Y299427D01*
X239428Y299468D01*
X239435Y299490D01*
X239434Y299522D01*
X239442Y299593D01*
X239442Y306923D01*
X239426Y307019D01*
X239417Y307116D01*
X239406Y307140D01*
X239402Y307166D01*
X239357Y307252D01*
X239317Y307341D01*
X239299Y307360D01*
X239287Y307383D01*
X239216Y307450D01*
X239150Y307522D01*
X239128Y307535D01*
X239109Y307553D01*
X239020Y307594D01*
X238935Y307641D01*
X238909Y307645D01*
X238886Y307656D01*
X238789Y307667D01*
X238693Y307684D01*
X238667Y307680D01*
X238641Y307683D01*
X238546Y307663D01*
X238450Y307648D01*
X238426Y307637D01*
X238401Y307631D01*
X238317Y307581D01*
X238230Y307537D01*
X238212Y307518D01*
X238190Y307505D01*
X238126Y307431D01*
X238058Y307361D01*
X238042Y307333D01*
X238030Y307318D01*
X238017Y307287D01*
X237977Y307214D01*
X237245Y305446D01*
X235604Y303805D01*
X233460Y302917D01*
X231479Y302917D01*
X231389Y302903D01*
X231298Y302895D01*
X231268Y302883D01*
X231236Y302878D01*
X231155Y302835D01*
X231072Y302799D01*
X231039Y302773D01*
X231019Y302762D01*
X230997Y302739D01*
X230941Y302694D01*
X218901Y290654D01*
X179981Y290654D01*
X179891Y290640D01*
X179800Y290632D01*
X179770Y290620D01*
X179738Y290615D01*
X179657Y290572D01*
X179574Y290536D01*
X179541Y290510D01*
X179521Y290499D01*
X179499Y290476D01*
X179443Y290431D01*
X178042Y289030D01*
X175898Y288142D01*
X173577Y288142D01*
G37*
%LPD*%
%LPC*%
G36*
X397540Y135580D02*
X397540Y135580D01*
X395396Y136468D01*
X393755Y138108D01*
X392867Y140252D01*
X392867Y142234D01*
X392853Y142324D01*
X392845Y142415D01*
X392833Y142444D01*
X392828Y142476D01*
X392785Y142557D01*
X392749Y142641D01*
X392723Y142673D01*
X392712Y142694D01*
X392689Y142716D01*
X392644Y142772D01*
X324647Y210769D01*
X324574Y210822D01*
X324504Y210881D01*
X324474Y210894D01*
X324448Y210912D01*
X324361Y210939D01*
X324276Y210973D01*
X324235Y210978D01*
X324213Y210985D01*
X324180Y210984D01*
X324109Y210992D01*
X292581Y210992D01*
X292491Y210977D01*
X292400Y210970D01*
X292370Y210957D01*
X292338Y210952D01*
X292257Y210909D01*
X292174Y210874D01*
X292141Y210848D01*
X292121Y210837D01*
X292099Y210814D01*
X292043Y210769D01*
X290642Y209368D01*
X288498Y208480D01*
X286177Y208480D01*
X284033Y209368D01*
X282393Y211008D01*
X281505Y213152D01*
X281505Y215473D01*
X282393Y217617D01*
X284033Y219257D01*
X286177Y220145D01*
X288498Y220145D01*
X290642Y219257D01*
X292043Y217856D01*
X292116Y217803D01*
X292186Y217744D01*
X292216Y217731D01*
X292242Y217713D01*
X292329Y217686D01*
X292414Y217652D01*
X292455Y217647D01*
X292477Y217640D01*
X292510Y217641D01*
X292581Y217633D01*
X327176Y217633D01*
X397341Y147468D01*
X397414Y147415D01*
X397484Y147356D01*
X397514Y147343D01*
X397540Y147325D01*
X397627Y147298D01*
X397712Y147264D01*
X397753Y147259D01*
X397775Y147252D01*
X397808Y147253D01*
X397879Y147245D01*
X399860Y147245D01*
X402004Y146357D01*
X403645Y144717D01*
X404533Y142573D01*
X404533Y140252D01*
X403645Y138108D01*
X402004Y136468D01*
X399860Y135580D01*
X397540Y135580D01*
G37*
%LPD*%
%LPC*%
G36*
X177465Y67942D02*
X177465Y67942D01*
X175321Y68830D01*
X173680Y70471D01*
X172792Y72615D01*
X172792Y74596D01*
X172778Y74686D01*
X172770Y74777D01*
X172758Y74807D01*
X172753Y74839D01*
X172710Y74920D01*
X172674Y75003D01*
X172648Y75036D01*
X172637Y75056D01*
X172614Y75078D01*
X172569Y75134D01*
X172479Y75224D01*
X172479Y163269D01*
X172465Y163359D01*
X172457Y163450D01*
X172445Y163480D01*
X172440Y163512D01*
X172397Y163593D01*
X172361Y163676D01*
X172335Y163709D01*
X172324Y163729D01*
X172301Y163751D01*
X172256Y163807D01*
X171855Y164208D01*
X170967Y166352D01*
X170967Y168673D01*
X171855Y170817D01*
X173496Y172457D01*
X175640Y173345D01*
X177960Y173345D01*
X180104Y172457D01*
X181745Y170817D01*
X182633Y168673D01*
X182633Y166352D01*
X181745Y164208D01*
X180104Y162568D01*
X179591Y162355D01*
X179491Y162293D01*
X179479Y162286D01*
X179422Y162256D01*
X179413Y162247D01*
X179391Y162234D01*
X179387Y162229D01*
X179382Y162226D01*
X179307Y162135D01*
X179303Y162131D01*
X179252Y162078D01*
X179246Y162065D01*
X179231Y162047D01*
X179229Y162041D01*
X179225Y162036D01*
X179185Y161932D01*
X179149Y161854D01*
X179147Y161838D01*
X179139Y161819D01*
X179138Y161811D01*
X179137Y161806D01*
X179136Y161788D01*
X179121Y161652D01*
X179121Y80369D01*
X179124Y80349D01*
X179122Y80330D01*
X179144Y80228D01*
X179160Y80126D01*
X179170Y80109D01*
X179174Y80089D01*
X179227Y80000D01*
X179276Y79909D01*
X179290Y79895D01*
X179300Y79878D01*
X179379Y79811D01*
X179454Y79739D01*
X179472Y79731D01*
X179487Y79718D01*
X179583Y79679D01*
X179677Y79636D01*
X179697Y79634D01*
X179715Y79626D01*
X179750Y79622D01*
X181929Y78720D01*
X183570Y77079D01*
X184458Y74935D01*
X184458Y72615D01*
X183570Y70471D01*
X181929Y68830D01*
X179785Y67942D01*
X177465Y67942D01*
G37*
%LPD*%
%LPC*%
G36*
X457840Y340167D02*
X457840Y340167D01*
X455696Y341055D01*
X454055Y342696D01*
X453167Y344840D01*
X453167Y347160D01*
X454055Y349304D01*
X455696Y350945D01*
X457840Y351833D01*
X460160Y351833D01*
X462304Y350945D01*
X463705Y349544D01*
X463779Y349491D01*
X463848Y349431D01*
X463879Y349419D01*
X463905Y349400D01*
X463992Y349373D01*
X464077Y349339D01*
X464118Y349335D01*
X464140Y349328D01*
X464172Y349329D01*
X464243Y349321D01*
X464309Y349321D01*
X464399Y349335D01*
X464490Y349343D01*
X464520Y349355D01*
X464552Y349360D01*
X464632Y349403D01*
X464716Y349439D01*
X464749Y349465D01*
X464769Y349476D01*
X464791Y349499D01*
X464847Y349544D01*
X466835Y351532D01*
X466847Y351548D01*
X466863Y351560D01*
X466919Y351647D01*
X466979Y351731D01*
X466985Y351750D01*
X466996Y351767D01*
X467021Y351868D01*
X467051Y351966D01*
X467051Y351986D01*
X467056Y352006D01*
X467048Y352109D01*
X467045Y352212D01*
X467038Y352231D01*
X467036Y352251D01*
X466996Y352346D01*
X466960Y352443D01*
X466948Y352459D01*
X466940Y352477D01*
X466835Y352608D01*
X464242Y355202D01*
X462769Y358756D01*
X462769Y377844D01*
X464242Y381398D01*
X466962Y384118D01*
X470516Y385591D01*
X474364Y385591D01*
X477918Y384118D01*
X480638Y381398D01*
X482111Y377844D01*
X482111Y358756D01*
X480638Y355202D01*
X477918Y352482D01*
X476231Y351783D01*
X476131Y351721D01*
X476031Y351661D01*
X476027Y351656D01*
X476022Y351653D01*
X475947Y351563D01*
X475871Y351474D01*
X475869Y351468D01*
X475865Y351464D01*
X475823Y351355D01*
X475779Y351246D01*
X475778Y351238D01*
X475777Y351234D01*
X475776Y351216D01*
X475761Y351079D01*
X475761Y351064D01*
X467376Y342679D01*
X464243Y342679D01*
X464153Y342665D01*
X464062Y342657D01*
X464033Y342645D01*
X464001Y342640D01*
X463920Y342597D01*
X463836Y342561D01*
X463804Y342535D01*
X463783Y342524D01*
X463761Y342501D01*
X463705Y342456D01*
X462304Y341055D01*
X460160Y340167D01*
X457840Y340167D01*
G37*
%LPD*%
%LPC*%
G36*
X330840Y341167D02*
X330840Y341167D01*
X328696Y342055D01*
X327055Y343696D01*
X326167Y345840D01*
X326167Y347821D01*
X326153Y347911D01*
X326145Y348002D01*
X326133Y348032D01*
X326128Y348064D01*
X326085Y348145D01*
X326049Y348228D01*
X326023Y348261D01*
X326012Y348281D01*
X325989Y348303D01*
X325944Y348359D01*
X323264Y351039D01*
X323169Y351108D01*
X323076Y351177D01*
X323070Y351179D01*
X323065Y351183D01*
X322953Y351217D01*
X322842Y351254D01*
X322836Y351253D01*
X322830Y351255D01*
X322713Y351252D01*
X322596Y351251D01*
X322589Y351249D01*
X322584Y351249D01*
X322566Y351243D01*
X322435Y351204D01*
X321964Y351009D01*
X318116Y351009D01*
X314562Y352482D01*
X311842Y355202D01*
X310369Y358756D01*
X310369Y377844D01*
X311842Y381398D01*
X314562Y384118D01*
X318116Y385591D01*
X321964Y385591D01*
X325518Y384118D01*
X328238Y381398D01*
X329711Y377844D01*
X329711Y358756D01*
X328508Y355853D01*
X328481Y355739D01*
X328453Y355626D01*
X328453Y355619D01*
X328452Y355613D01*
X328463Y355497D01*
X328472Y355380D01*
X328474Y355375D01*
X328475Y355368D01*
X328523Y355261D01*
X328568Y355154D01*
X328573Y355148D01*
X328575Y355144D01*
X328587Y355130D01*
X328673Y355023D01*
X330641Y353056D01*
X330715Y353003D01*
X330784Y352943D01*
X330814Y352931D01*
X330840Y352912D01*
X330927Y352885D01*
X331012Y352851D01*
X331053Y352847D01*
X331075Y352840D01*
X331108Y352841D01*
X331179Y352833D01*
X333160Y352833D01*
X335304Y351945D01*
X336945Y350304D01*
X337833Y348160D01*
X337833Y345840D01*
X336945Y343696D01*
X335304Y342055D01*
X333160Y341167D01*
X330840Y341167D01*
G37*
%LPD*%
%LPC*%
G36*
X355840Y341167D02*
X355840Y341167D01*
X353696Y342055D01*
X352055Y343696D01*
X351167Y345840D01*
X351167Y347821D01*
X351153Y347911D01*
X351145Y348002D01*
X351133Y348032D01*
X351128Y348064D01*
X351085Y348144D01*
X351049Y348228D01*
X351023Y348261D01*
X351012Y348281D01*
X350989Y348303D01*
X350944Y348359D01*
X348382Y350922D01*
X348287Y350990D01*
X348193Y351060D01*
X348187Y351062D01*
X348182Y351066D01*
X348071Y351100D01*
X347959Y351136D01*
X347953Y351136D01*
X347947Y351138D01*
X347830Y351135D01*
X347713Y351134D01*
X347706Y351132D01*
X347701Y351132D01*
X347683Y351125D01*
X347552Y351087D01*
X347364Y351009D01*
X343516Y351009D01*
X339962Y352482D01*
X337242Y355202D01*
X335769Y358756D01*
X335769Y377844D01*
X337242Y381398D01*
X339962Y384118D01*
X343516Y385591D01*
X347364Y385591D01*
X350918Y384118D01*
X353638Y381398D01*
X355111Y377844D01*
X355111Y358756D01*
X353791Y355570D01*
X353764Y355456D01*
X353736Y355343D01*
X353736Y355337D01*
X353735Y355330D01*
X353746Y355214D01*
X353755Y355098D01*
X353757Y355092D01*
X353758Y355086D01*
X353805Y354978D01*
X353851Y354871D01*
X353856Y354865D01*
X353858Y354861D01*
X353870Y354847D01*
X353956Y354740D01*
X355641Y353056D01*
X355715Y353003D01*
X355784Y352943D01*
X355814Y352931D01*
X355840Y352912D01*
X355927Y352885D01*
X356012Y352851D01*
X356053Y352847D01*
X356075Y352840D01*
X356108Y352841D01*
X356179Y352833D01*
X358160Y352833D01*
X360304Y351945D01*
X361945Y350304D01*
X362833Y348160D01*
X362833Y345840D01*
X361945Y343696D01*
X360304Y342055D01*
X358160Y341167D01*
X355840Y341167D01*
G37*
%LPD*%
%LPC*%
G36*
X438840Y341167D02*
X438840Y341167D01*
X436696Y342055D01*
X435055Y343696D01*
X434167Y345840D01*
X434167Y348160D01*
X435055Y350304D01*
X436696Y351945D01*
X438840Y352833D01*
X439373Y352833D01*
X439444Y352844D01*
X439515Y352846D01*
X439564Y352864D01*
X439616Y352872D01*
X439679Y352906D01*
X439746Y352931D01*
X439787Y352963D01*
X439833Y352988D01*
X439882Y353040D01*
X439938Y353084D01*
X439967Y353128D01*
X440002Y353166D01*
X440033Y353231D01*
X440071Y353291D01*
X440084Y353342D01*
X440106Y353389D01*
X440114Y353460D01*
X440132Y353530D01*
X440127Y353582D01*
X440133Y353633D01*
X440118Y353704D01*
X440112Y353775D01*
X440092Y353823D01*
X440081Y353874D01*
X440044Y353935D01*
X440016Y354001D01*
X439971Y354057D01*
X439955Y354085D01*
X439937Y354100D01*
X439911Y354132D01*
X438842Y355202D01*
X437369Y358756D01*
X437369Y377844D01*
X438842Y381398D01*
X441562Y384118D01*
X445116Y385591D01*
X448964Y385591D01*
X452518Y384118D01*
X455238Y381398D01*
X456711Y377844D01*
X456711Y358756D01*
X455238Y355202D01*
X452518Y352482D01*
X448927Y350994D01*
X448840Y350987D01*
X448810Y350975D01*
X448778Y350970D01*
X448697Y350927D01*
X448614Y350891D01*
X448581Y350865D01*
X448561Y350854D01*
X448539Y350831D01*
X448483Y350786D01*
X446056Y348359D01*
X446003Y348286D01*
X445943Y348216D01*
X445931Y348186D01*
X445912Y348160D01*
X445885Y348073D01*
X445851Y347988D01*
X445847Y347947D01*
X445840Y347925D01*
X445841Y347892D01*
X445833Y347821D01*
X445833Y345840D01*
X444945Y343696D01*
X443304Y342055D01*
X441160Y341167D01*
X438840Y341167D01*
G37*
%LPD*%
%LPC*%
G36*
X391840Y341167D02*
X391840Y341167D01*
X389696Y342055D01*
X388055Y343696D01*
X387167Y345840D01*
X387167Y348160D01*
X388055Y350304D01*
X389456Y351705D01*
X389509Y351779D01*
X389569Y351848D01*
X389581Y351879D01*
X389600Y351905D01*
X389627Y351992D01*
X389661Y352077D01*
X389665Y352118D01*
X389672Y352140D01*
X389671Y352172D01*
X389679Y352243D01*
X389679Y353249D01*
X389665Y353339D01*
X389657Y353430D01*
X389645Y353460D01*
X389640Y353492D01*
X389597Y353572D01*
X389561Y353656D01*
X389535Y353688D01*
X389524Y353709D01*
X389501Y353731D01*
X389456Y353787D01*
X388042Y355202D01*
X386569Y358756D01*
X386569Y377844D01*
X388042Y381398D01*
X390762Y384118D01*
X394316Y385591D01*
X398164Y385591D01*
X401718Y384118D01*
X404438Y381398D01*
X405911Y377844D01*
X405911Y358756D01*
X404438Y355202D01*
X401718Y352482D01*
X398431Y351120D01*
X398414Y351109D01*
X398395Y351104D01*
X398310Y351045D01*
X398222Y350990D01*
X398209Y350975D01*
X398193Y350964D01*
X398131Y350880D01*
X398065Y350801D01*
X398058Y350782D01*
X398046Y350766D01*
X398014Y350668D01*
X397977Y350571D01*
X397976Y350551D01*
X397970Y350532D01*
X397971Y350429D01*
X397966Y350325D01*
X397972Y350306D01*
X397972Y350286D01*
X398019Y350125D01*
X398833Y348160D01*
X398833Y345840D01*
X397945Y343696D01*
X396304Y342055D01*
X394160Y341167D01*
X391840Y341167D01*
G37*
%LPD*%
%LPC*%
G36*
X369840Y341167D02*
X369840Y341167D01*
X367696Y342055D01*
X366055Y343696D01*
X365167Y345840D01*
X365167Y348160D01*
X366055Y350304D01*
X366586Y350835D01*
X366613Y350872D01*
X366647Y350903D01*
X366685Y350972D01*
X366730Y351035D01*
X366743Y351079D01*
X366766Y351119D01*
X366779Y351196D01*
X366802Y351270D01*
X366801Y351316D01*
X366809Y351361D01*
X366798Y351438D01*
X366796Y351516D01*
X366780Y351559D01*
X366773Y351604D01*
X366738Y351674D01*
X366711Y351747D01*
X366683Y351783D01*
X366662Y351824D01*
X366606Y351878D01*
X366558Y351939D01*
X366519Y351964D01*
X366486Y351996D01*
X366367Y352062D01*
X366351Y352072D01*
X366346Y352073D01*
X366339Y352077D01*
X365362Y352482D01*
X362642Y355202D01*
X361169Y358756D01*
X361169Y377844D01*
X362642Y381398D01*
X365362Y384118D01*
X368916Y385591D01*
X372764Y385591D01*
X376318Y384118D01*
X379038Y381398D01*
X380511Y377844D01*
X380511Y358756D01*
X379038Y355202D01*
X376318Y352482D01*
X375567Y352170D01*
X375528Y352146D01*
X375485Y352130D01*
X375424Y352082D01*
X375358Y352041D01*
X375328Y352005D01*
X375293Y351977D01*
X375251Y351911D01*
X375201Y351851D01*
X375185Y351808D01*
X375160Y351770D01*
X375141Y351694D01*
X375113Y351622D01*
X375111Y351576D01*
X375100Y351531D01*
X375106Y351454D01*
X375102Y351376D01*
X375115Y351332D01*
X375119Y351286D01*
X375149Y351215D01*
X375171Y351140D01*
X375197Y351102D01*
X375215Y351060D01*
X375300Y350953D01*
X375311Y350938D01*
X375315Y350935D01*
X375320Y350929D01*
X375945Y350304D01*
X376833Y348160D01*
X376833Y345840D01*
X375945Y343696D01*
X374304Y342055D01*
X372160Y341167D01*
X369840Y341167D01*
G37*
%LPD*%
%LPC*%
G36*
X422840Y342167D02*
X422840Y342167D01*
X420696Y343055D01*
X419055Y344696D01*
X418167Y346840D01*
X418167Y349160D01*
X418757Y350583D01*
X418761Y350602D01*
X418771Y350620D01*
X418789Y350722D01*
X418813Y350822D01*
X418811Y350842D01*
X418814Y350862D01*
X418799Y350964D01*
X418790Y351067D01*
X418782Y351085D01*
X418779Y351105D01*
X418732Y351197D01*
X418690Y351292D01*
X418676Y351307D01*
X418667Y351324D01*
X418593Y351397D01*
X418523Y351473D01*
X418506Y351483D01*
X418492Y351497D01*
X418345Y351577D01*
X416162Y352482D01*
X413442Y355202D01*
X411969Y358756D01*
X411969Y377844D01*
X413442Y381398D01*
X416162Y384118D01*
X419716Y385591D01*
X423564Y385591D01*
X427118Y384118D01*
X429838Y381398D01*
X431311Y377844D01*
X431311Y358756D01*
X429838Y355202D01*
X427981Y353344D01*
X427969Y353328D01*
X427954Y353316D01*
X427898Y353229D01*
X427837Y353145D01*
X427832Y353126D01*
X427821Y353109D01*
X427795Y353008D01*
X427765Y352910D01*
X427766Y352890D01*
X427761Y352870D01*
X427769Y352767D01*
X427771Y352664D01*
X427778Y352645D01*
X427780Y352625D01*
X427820Y352530D01*
X427856Y352433D01*
X427868Y352417D01*
X427876Y352399D01*
X427981Y352268D01*
X428945Y351304D01*
X429833Y349160D01*
X429833Y346840D01*
X428945Y344696D01*
X427304Y343055D01*
X425160Y342167D01*
X422840Y342167D01*
G37*
%LPD*%
%LPC*%
G36*
X28758Y74403D02*
X28758Y74403D01*
X25577Y75721D01*
X23143Y78155D01*
X21825Y81336D01*
X21825Y84780D01*
X23143Y87961D01*
X25577Y90395D01*
X28758Y91713D01*
X31677Y91713D01*
X31767Y91727D01*
X31858Y91735D01*
X31887Y91747D01*
X31919Y91752D01*
X32000Y91795D01*
X32084Y91831D01*
X32116Y91857D01*
X32137Y91868D01*
X32159Y91891D01*
X32215Y91936D01*
X32726Y92447D01*
X32779Y92521D01*
X32839Y92591D01*
X32851Y92621D01*
X32870Y92647D01*
X32897Y92734D01*
X32931Y92819D01*
X32935Y92860D01*
X32942Y92882D01*
X32941Y92914D01*
X32949Y92985D01*
X32949Y103800D01*
X32946Y103818D01*
X32948Y103834D01*
X32939Y103878D01*
X32938Y103931D01*
X32915Y104011D01*
X32910Y104043D01*
X32900Y104060D01*
X32891Y104092D01*
X32167Y105840D01*
X32167Y108160D01*
X33055Y110304D01*
X34696Y111945D01*
X36840Y112833D01*
X39160Y112833D01*
X41304Y111945D01*
X42945Y110304D01*
X43833Y108160D01*
X43833Y105840D01*
X43109Y104092D01*
X43095Y104035D01*
X43079Y103999D01*
X43078Y103988D01*
X43069Y103967D01*
X43060Y103884D01*
X43053Y103852D01*
X43054Y103833D01*
X43051Y103800D01*
X43051Y88486D01*
X39358Y84793D01*
X39305Y84719D01*
X39245Y84649D01*
X39233Y84619D01*
X39214Y84593D01*
X39187Y84506D01*
X39153Y84421D01*
X39149Y84380D01*
X39142Y84358D01*
X39143Y84326D01*
X39135Y84255D01*
X39135Y81336D01*
X37817Y78155D01*
X35383Y75721D01*
X32202Y74403D01*
X28758Y74403D01*
G37*
%LPD*%
%LPC*%
G36*
X230602Y267592D02*
X230602Y267592D01*
X228458Y268480D01*
X226818Y270121D01*
X225930Y272265D01*
X225930Y274246D01*
X225915Y274336D01*
X225908Y274427D01*
X225895Y274457D01*
X225890Y274489D01*
X225847Y274570D01*
X225812Y274653D01*
X225786Y274686D01*
X225775Y274706D01*
X225752Y274728D01*
X225707Y274784D01*
X221997Y278494D01*
X221924Y278547D01*
X221854Y278606D01*
X221824Y278619D01*
X221798Y278637D01*
X221711Y278664D01*
X221626Y278698D01*
X221585Y278703D01*
X221563Y278710D01*
X221530Y278709D01*
X221459Y278717D01*
X210318Y278717D01*
X210228Y278702D01*
X210137Y278695D01*
X210108Y278682D01*
X210076Y278677D01*
X209995Y278634D01*
X209911Y278599D01*
X209879Y278573D01*
X209858Y278562D01*
X209836Y278539D01*
X209780Y278494D01*
X208379Y277093D01*
X206235Y276205D01*
X203915Y276205D01*
X201771Y277093D01*
X200130Y278733D01*
X199242Y280877D01*
X199242Y283198D01*
X200130Y285342D01*
X201771Y286982D01*
X203915Y287870D01*
X206235Y287870D01*
X208379Y286982D01*
X209780Y285581D01*
X209854Y285528D01*
X209923Y285469D01*
X209954Y285456D01*
X209980Y285438D01*
X210067Y285411D01*
X210152Y285377D01*
X210193Y285372D01*
X210215Y285365D01*
X210247Y285366D01*
X210318Y285358D01*
X224526Y285358D01*
X230403Y279481D01*
X230477Y279428D01*
X230546Y279368D01*
X230577Y279356D01*
X230603Y279337D01*
X230690Y279310D01*
X230775Y279276D01*
X230816Y279272D01*
X230838Y279265D01*
X230870Y279266D01*
X230941Y279258D01*
X232923Y279258D01*
X235067Y278370D01*
X236707Y276729D01*
X237595Y274585D01*
X237595Y272265D01*
X236707Y270121D01*
X235067Y268480D01*
X232923Y267592D01*
X230602Y267592D01*
G37*
%LPD*%
%LPC*%
G36*
X111140Y313467D02*
X111140Y313467D01*
X108996Y314355D01*
X107355Y315996D01*
X106467Y318140D01*
X106467Y320460D01*
X106969Y321671D01*
X106995Y321784D01*
X107024Y321898D01*
X107023Y321904D01*
X107025Y321910D01*
X107014Y322027D01*
X107005Y322143D01*
X107002Y322149D01*
X107002Y322155D01*
X106954Y322262D01*
X106908Y322369D01*
X106904Y322375D01*
X106902Y322380D01*
X106889Y322393D01*
X106804Y322500D01*
X99759Y329544D01*
X99686Y329597D01*
X99616Y329657D01*
X99586Y329669D01*
X99560Y329688D01*
X99473Y329715D01*
X99388Y329749D01*
X99347Y329753D01*
X99325Y329760D01*
X99292Y329759D01*
X99221Y329767D01*
X97240Y329767D01*
X95096Y330655D01*
X93455Y332296D01*
X92567Y334440D01*
X92567Y336760D01*
X93455Y338904D01*
X95096Y340545D01*
X97240Y341433D01*
X99560Y341433D01*
X101704Y340545D01*
X103345Y338904D01*
X104233Y336760D01*
X104233Y334779D01*
X104247Y334689D01*
X104255Y334598D01*
X104267Y334568D01*
X104272Y334536D01*
X104315Y334455D01*
X104351Y334372D01*
X104377Y334339D01*
X104388Y334319D01*
X104411Y334297D01*
X104456Y334241D01*
X113452Y325244D01*
X113529Y325167D01*
X113583Y325129D01*
X113629Y325083D01*
X113702Y325043D01*
X113729Y325023D01*
X113748Y325018D01*
X113776Y325002D01*
X115604Y324245D01*
X117245Y322604D01*
X118133Y320460D01*
X118133Y318140D01*
X117245Y315996D01*
X115604Y314355D01*
X113460Y313467D01*
X111140Y313467D01*
G37*
%LPD*%
G36*
X394430Y10176D02*
X394430Y10176D01*
X394527Y10186D01*
X394551Y10196D01*
X394577Y10200D01*
X394663Y10246D01*
X394752Y10286D01*
X394771Y10303D01*
X394794Y10316D01*
X394861Y10386D01*
X394933Y10452D01*
X394946Y10475D01*
X394964Y10494D01*
X395005Y10582D01*
X395052Y10668D01*
X395056Y10693D01*
X395067Y10717D01*
X395078Y10814D01*
X395095Y10910D01*
X395092Y10936D01*
X395095Y10961D01*
X395074Y11057D01*
X395060Y11153D01*
X395048Y11176D01*
X395042Y11202D01*
X394992Y11285D01*
X394948Y11372D01*
X394929Y11391D01*
X394916Y11413D01*
X394842Y11476D01*
X394773Y11544D01*
X394744Y11560D01*
X394729Y11573D01*
X394698Y11585D01*
X394626Y11625D01*
X391472Y12932D01*
X388752Y15652D01*
X387279Y19206D01*
X387279Y32332D01*
X387265Y32422D01*
X387257Y32513D01*
X387245Y32542D01*
X387240Y32574D01*
X387197Y32655D01*
X387161Y32739D01*
X387135Y32771D01*
X387124Y32792D01*
X387101Y32814D01*
X387056Y32870D01*
X383010Y36916D01*
X382952Y36958D01*
X382900Y37007D01*
X382853Y37029D01*
X382811Y37059D01*
X382742Y37080D01*
X382677Y37111D01*
X382625Y37116D01*
X382575Y37132D01*
X382504Y37130D01*
X382433Y37138D01*
X382382Y37127D01*
X382330Y37125D01*
X382262Y37101D01*
X382192Y37086D01*
X382148Y37059D01*
X382099Y37041D01*
X382043Y36996D01*
X381981Y36959D01*
X381947Y36920D01*
X381907Y36887D01*
X381868Y36827D01*
X381821Y36772D01*
X381802Y36724D01*
X381774Y36680D01*
X381756Y36611D01*
X381729Y36544D01*
X381721Y36473D01*
X381713Y36442D01*
X381715Y36419D01*
X381711Y36378D01*
X381711Y30273D01*
X372312Y30273D01*
X372292Y30270D01*
X372273Y30272D01*
X372171Y30250D01*
X372069Y30233D01*
X372052Y30224D01*
X372032Y30220D01*
X371943Y30167D01*
X371852Y30118D01*
X371838Y30104D01*
X371821Y30094D01*
X371754Y30015D01*
X371683Y29940D01*
X371674Y29922D01*
X371661Y29907D01*
X371623Y29811D01*
X371579Y29717D01*
X371577Y29697D01*
X371569Y29679D01*
X371551Y29512D01*
X371551Y27988D01*
X371554Y27968D01*
X371552Y27949D01*
X371574Y27847D01*
X371591Y27745D01*
X371600Y27728D01*
X371604Y27708D01*
X371657Y27619D01*
X371706Y27528D01*
X371720Y27514D01*
X371730Y27497D01*
X371809Y27430D01*
X371884Y27359D01*
X371902Y27350D01*
X371917Y27337D01*
X372013Y27298D01*
X372107Y27255D01*
X372127Y27253D01*
X372145Y27245D01*
X372312Y27227D01*
X381711Y27227D01*
X381711Y20330D01*
X381461Y18751D01*
X380966Y17230D01*
X380240Y15805D01*
X379300Y14511D01*
X378169Y13380D01*
X376875Y12440D01*
X375450Y11714D01*
X375242Y11646D01*
X375238Y11644D01*
X375234Y11643D01*
X375129Y11588D01*
X375023Y11533D01*
X375021Y11530D01*
X375017Y11528D01*
X374935Y11442D01*
X374852Y11357D01*
X374850Y11353D01*
X374848Y11350D01*
X374797Y11241D01*
X374746Y11135D01*
X374746Y11131D01*
X374744Y11127D01*
X374731Y11009D01*
X374717Y10890D01*
X374717Y10887D01*
X374717Y10883D01*
X374742Y10765D01*
X374766Y10650D01*
X374768Y10646D01*
X374769Y10642D01*
X374831Y10539D01*
X374890Y10437D01*
X374893Y10434D01*
X374895Y10431D01*
X374986Y10353D01*
X375076Y10275D01*
X375079Y10274D01*
X375082Y10271D01*
X375194Y10226D01*
X375303Y10181D01*
X375307Y10181D01*
X375310Y10179D01*
X375477Y10161D01*
X394334Y10161D01*
X394430Y10176D01*
G37*
%LPC*%
G36*
X32003Y44703D02*
X32003Y44703D01*
X32003Y52201D01*
X33147Y51973D01*
X34812Y51284D01*
X36310Y50283D01*
X37583Y49010D01*
X38584Y47512D01*
X39273Y45847D01*
X39501Y44703D01*
X32003Y44703D01*
G37*
%LPD*%
%LPC*%
G36*
X21459Y44703D02*
X21459Y44703D01*
X21687Y45847D01*
X22376Y47512D01*
X23377Y49010D01*
X24650Y50283D01*
X26148Y51284D01*
X27813Y51973D01*
X28957Y52201D01*
X28957Y44703D01*
X21459Y44703D01*
G37*
%LPD*%
%LPC*%
G36*
X32003Y41657D02*
X32003Y41657D01*
X39501Y41657D01*
X39273Y40513D01*
X38584Y38848D01*
X37583Y37350D01*
X36310Y36077D01*
X34812Y35076D01*
X33147Y34387D01*
X32003Y34159D01*
X32003Y41657D01*
G37*
%LPD*%
%LPC*%
G36*
X27813Y34387D02*
X27813Y34387D01*
X26148Y35076D01*
X24650Y36077D01*
X23377Y37350D01*
X22376Y38848D01*
X21687Y40513D01*
X21459Y41657D01*
X28957Y41657D01*
X28957Y34159D01*
X27813Y34387D01*
G37*
%LPD*%
%LPC*%
G36*
X30479Y43179D02*
X30479Y43179D01*
X30479Y43181D01*
X30481Y43181D01*
X30481Y43179D01*
X30479Y43179D01*
G37*
%LPD*%
D10*
X30480Y43180D03*
X30480Y63246D03*
X30480Y83058D03*
D11*
X577920Y68580D03*
D12*
X498550Y36370D02*
X498550Y21130D01*
X473150Y21130D02*
X473150Y36370D01*
X447750Y36370D02*
X447750Y21130D01*
X422350Y21130D02*
X422350Y36370D01*
X396950Y36370D02*
X396950Y21130D01*
X371550Y21130D02*
X371550Y36370D01*
X320040Y360680D02*
X320040Y375920D01*
X345440Y375920D02*
X345440Y360680D01*
X370840Y360680D02*
X370840Y375920D01*
X396240Y375920D02*
X396240Y360680D01*
X421640Y360680D02*
X421640Y375920D01*
X447040Y375920D02*
X447040Y360680D01*
X472440Y360680D02*
X472440Y375920D01*
X316300Y36620D02*
X316300Y21380D01*
X341700Y21380D02*
X341700Y36620D01*
D13*
X188420Y342010D03*
X65630Y65360D03*
X103000Y100000D03*
X148000Y292000D03*
X176000Y250000D03*
X48600Y343200D03*
X25900Y240600D03*
D14*
X48600Y263300D02*
X48600Y343200D01*
X48600Y263300D02*
X25900Y240600D01*
D13*
X38000Y107000D03*
D14*
X38000Y90578D02*
X30480Y83058D01*
X38000Y90578D02*
X38000Y107000D01*
D13*
X363950Y49950D03*
D15*
X375750Y49950D02*
X396950Y28750D01*
X375750Y49950D02*
X363950Y49950D01*
D13*
X352000Y79846D03*
D16*
X352000Y39300D01*
X341700Y29000D01*
X336000Y48700D02*
X316300Y29000D01*
D13*
X336000Y79846D03*
D16*
X336000Y48700D01*
D13*
X287338Y285750D03*
X418338Y140413D03*
D17*
X418338Y154750D01*
X287338Y285750D01*
D13*
X287338Y214313D03*
X398700Y141413D03*
D17*
X325800Y214313D01*
X287338Y214313D01*
D13*
X73425Y31450D03*
D17*
X52629Y52246D02*
X41480Y52246D01*
X30480Y63246D01*
X52629Y52246D02*
X73425Y31450D01*
X472440Y352440D02*
X472440Y368300D01*
X472440Y352440D02*
X466000Y346000D01*
X459000Y346000D01*
D13*
X459000Y346000D03*
X484313Y347813D03*
X276050Y48800D03*
D17*
X478000Y341500D02*
X484313Y347813D01*
X478000Y341500D02*
X478000Y301000D01*
X443000Y266000D02*
X443000Y129000D01*
X407200Y93200D01*
X320450Y93200D01*
X276050Y48800D01*
X443000Y266000D02*
X478000Y301000D01*
D13*
X176800Y167513D03*
X178625Y73775D03*
D17*
X175800Y166513D02*
X176800Y167513D01*
X175800Y76600D02*
X178625Y73775D01*
X175800Y76600D02*
X175800Y166513D01*
D13*
X84488Y197263D03*
X92075Y61150D03*
D17*
X92000Y61225D02*
X92000Y189750D01*
X92000Y61225D02*
X92075Y61150D01*
X92000Y189750D02*
X84488Y197263D01*
D13*
X84000Y161000D03*
X94000Y48000D03*
D17*
X84000Y57000D02*
X84000Y161000D01*
X93000Y48000D02*
X94000Y48000D01*
X93000Y48000D02*
X84000Y57000D01*
D13*
X109000Y24000D03*
X66000Y116000D03*
D17*
X76000Y106000D01*
X76000Y43000D01*
X108538Y23538D02*
X109000Y24000D01*
X108538Y23538D02*
X96000Y23538D01*
X95125Y23875D01*
X76000Y43000D01*
D13*
X242763Y294350D03*
X218663Y340913D03*
D17*
X229913Y340913D01*
X230000Y341000D01*
X242763Y328238D01*
X242763Y294350D01*
D13*
X232300Y308750D03*
X174738Y293975D03*
D17*
X217525Y293975D02*
X232300Y308750D01*
X217525Y293975D02*
X174738Y293975D01*
D13*
X241063Y176800D03*
X187818Y304853D03*
D17*
X164853Y304853D01*
X161000Y301000D01*
X161000Y251000D01*
X170000Y242000D02*
X227000Y242000D01*
X241063Y227938D01*
X241063Y176800D01*
X170000Y242000D02*
X161000Y251000D01*
D13*
X231763Y273425D03*
X205075Y282038D03*
D17*
X223150Y282038D01*
X231763Y273425D01*
D13*
X98400Y335600D03*
X112300Y319300D03*
D17*
X112300Y321700D02*
X98400Y335600D01*
X112300Y321700D02*
X112300Y319300D01*
D13*
X441000Y52000D03*
D17*
X428000Y52000D01*
X421750Y45750D01*
X421750Y29350D01*
X422350Y28750D01*
D13*
X478450Y72050D03*
D17*
X478450Y34050D01*
X473150Y28750D01*
D13*
X498450Y66650D03*
D17*
X498450Y28850D01*
X498550Y28750D01*
D13*
X458450Y77450D03*
D17*
X458450Y54450D01*
X447750Y30750D02*
X447750Y28750D01*
X458450Y41450D02*
X458450Y54450D01*
X458450Y41450D02*
X447750Y30750D01*
D13*
X440000Y347000D03*
D17*
X447040Y354040D01*
X447040Y368300D01*
X424000Y365940D02*
X421640Y368300D01*
X424000Y365940D02*
X424000Y348000D01*
D13*
X424000Y348000D03*
X393000Y347000D03*
D17*
X393000Y365060D02*
X396240Y368300D01*
X393000Y365060D02*
X393000Y347000D01*
X371000Y368140D02*
X370840Y368300D01*
X371000Y368140D02*
X371000Y347000D01*
D13*
X371000Y347000D03*
X357000Y347000D03*
D17*
X345440Y358560D01*
X345440Y368300D01*
X320040Y368300D02*
X320040Y358960D01*
X332000Y347000D01*
D13*
X332000Y347000D03*
M02*
