G04 EAGLE Gerber RS-274X export*
G75*
%MOMM*%
%FSLAX34Y34*%
%LPD*%
%INSolderpaste Top*%
%IPPOS*%
%AMOC8*
5,1,8,0,0,1.08239X$1,22.5*%
G01*
%ADD10R,0.800000X0.800000*%
%ADD11R,2.250000X0.500000*%
%ADD12R,4.000000X2.050000*%
%ADD13R,3.500000X2.050000*%
%ADD14R,1.100000X1.000000*%
%ADD15R,1.216000X1.724000*%
%ADD16R,1.000000X1.100000*%
%ADD17R,1.400000X1.400000*%
%ADD18C,0.275000*%
%ADD19R,0.900000X0.800000*%
%ADD20R,0.800000X0.900000*%
%ADD21R,1.498600X0.304800*%
%ADD22R,0.355600X0.952500*%
%ADD23R,1.020000X1.500000*%
%ADD24C,0.100000*%
%ADD25R,0.381000X1.397000*%


D10*
X617100Y363220D03*
X602100Y363220D03*
D11*
X74080Y311660D03*
X74080Y319660D03*
X74080Y327660D03*
X74080Y335660D03*
X74080Y343660D03*
D12*
X31830Y376910D03*
D13*
X74330Y376910D03*
X74330Y278410D03*
D12*
X31830Y278410D03*
D14*
X297230Y62900D03*
X314230Y62900D03*
D15*
X498450Y110490D03*
X478450Y110490D03*
X458450Y110490D03*
X438450Y110490D03*
X418450Y110490D03*
X398450Y110490D03*
X378450Y110490D03*
X358450Y110490D03*
X338450Y110490D03*
X318450Y110490D03*
X558450Y110490D03*
X578450Y110490D03*
X598450Y110490D03*
X478450Y325490D03*
X458450Y325490D03*
X438450Y325490D03*
X418450Y325490D03*
X398450Y325490D03*
X378450Y325490D03*
X358450Y325490D03*
X338450Y325490D03*
X318450Y325490D03*
D14*
X101410Y86770D03*
X118410Y86770D03*
D16*
X198830Y35170D03*
X198830Y18170D03*
X272950Y35170D03*
X272950Y18170D03*
D14*
X162170Y153490D03*
X145170Y153490D03*
D16*
X191070Y124170D03*
X191070Y107170D03*
X159130Y124370D03*
X159130Y107370D03*
D14*
X257800Y140300D03*
X274800Y140300D03*
X257800Y103130D03*
X274800Y103130D03*
D10*
X31630Y127000D03*
X16630Y127000D03*
X31630Y160020D03*
X16630Y160020D03*
X31630Y198120D03*
X16630Y198120D03*
D17*
X103600Y189150D03*
X139700Y189150D03*
D18*
X121155Y156125D02*
X121155Y146475D01*
X121155Y156125D02*
X123905Y156125D01*
X123905Y146475D01*
X121155Y146475D01*
X121155Y149087D02*
X123905Y149087D01*
X123905Y151699D02*
X121155Y151699D01*
X121155Y154311D02*
X123905Y154311D01*
X111655Y156125D02*
X111655Y146475D01*
X111655Y156125D02*
X114405Y156125D01*
X114405Y146475D01*
X111655Y146475D01*
X111655Y149087D02*
X114405Y149087D01*
X114405Y151699D02*
X111655Y151699D01*
X111655Y154311D02*
X114405Y154311D01*
X102155Y156125D02*
X102155Y146475D01*
X102155Y156125D02*
X104905Y156125D01*
X104905Y146475D01*
X102155Y146475D01*
X102155Y149087D02*
X104905Y149087D01*
X104905Y151699D02*
X102155Y151699D01*
X102155Y154311D02*
X104905Y154311D01*
X102155Y132925D02*
X102155Y123275D01*
X102155Y132925D02*
X104905Y132925D01*
X104905Y123275D01*
X102155Y123275D01*
X102155Y125887D02*
X104905Y125887D01*
X104905Y128499D02*
X102155Y128499D01*
X102155Y131111D02*
X104905Y131111D01*
X111655Y132925D02*
X111655Y123275D01*
X111655Y132925D02*
X114405Y132925D01*
X114405Y123275D01*
X111655Y123275D01*
X111655Y125887D02*
X114405Y125887D01*
X114405Y128499D02*
X111655Y128499D01*
X111655Y131111D02*
X114405Y131111D01*
X121155Y132925D02*
X121155Y123275D01*
X121155Y132925D02*
X123905Y132925D01*
X123905Y123275D01*
X121155Y123275D01*
X121155Y125887D02*
X123905Y125887D01*
X123905Y128499D02*
X121155Y128499D01*
X121155Y131111D02*
X123905Y131111D01*
D19*
X57230Y199120D03*
X72470Y199120D03*
X57230Y162290D03*
X72470Y162290D03*
X57230Y126730D03*
X72470Y126730D03*
X145120Y16770D03*
X160360Y16770D03*
X275050Y63500D03*
X259810Y63500D03*
D20*
X236390Y19050D03*
X236390Y34290D03*
X60950Y247220D03*
X60950Y231980D03*
X191500Y72640D03*
X191500Y87880D03*
D21*
X117626Y61776D03*
X117626Y56950D03*
X117626Y51870D03*
X117626Y46790D03*
X117626Y41964D03*
X158774Y41964D03*
X158774Y46790D03*
X158774Y51870D03*
X158774Y56950D03*
X158774Y61776D03*
D22*
X215195Y99807D03*
X234245Y99807D03*
X224720Y125334D03*
D23*
X204930Y167640D03*
D24*
X215480Y159640D02*
X223080Y159640D01*
X223080Y156640D01*
X215480Y156640D01*
X215480Y159640D01*
X215480Y157590D02*
X223080Y157590D01*
X223080Y158540D02*
X215480Y158540D01*
X215480Y159490D02*
X223080Y159490D01*
X223080Y169140D02*
X215480Y169140D01*
X223080Y169140D02*
X223080Y166140D01*
X215480Y166140D01*
X215480Y169140D01*
X215480Y167090D02*
X223080Y167090D01*
X223080Y168040D02*
X215480Y168040D01*
X215480Y168990D02*
X223080Y168990D01*
X223080Y178640D02*
X215480Y178640D01*
X223080Y178640D02*
X223080Y175640D01*
X215480Y175640D01*
X215480Y178640D01*
X215480Y176590D02*
X223080Y176590D01*
X223080Y177540D02*
X215480Y177540D01*
X215480Y178490D02*
X223080Y178490D01*
X194380Y178640D02*
X186780Y178640D01*
X194380Y178640D02*
X194380Y175640D01*
X186780Y175640D01*
X186780Y178640D01*
X186780Y176590D02*
X194380Y176590D01*
X194380Y177540D02*
X186780Y177540D01*
X186780Y178490D02*
X194380Y178490D01*
X194380Y169140D02*
X186780Y169140D01*
X194380Y169140D02*
X194380Y166140D01*
X186780Y166140D01*
X186780Y169140D01*
X186780Y167090D02*
X194380Y167090D01*
X194380Y168040D02*
X186780Y168040D01*
X186780Y168990D02*
X194380Y168990D01*
X194380Y159640D02*
X186780Y159640D01*
X194380Y159640D02*
X194380Y156640D01*
X186780Y156640D01*
X186780Y159640D01*
X186780Y157590D02*
X194380Y157590D01*
X194380Y158540D02*
X186780Y158540D01*
X186780Y159490D02*
X194380Y159490D01*
D19*
X556260Y363220D03*
X571500Y363220D03*
D16*
X114950Y238650D03*
X114950Y221650D03*
D14*
X185030Y213360D03*
X168030Y213360D03*
X209940Y213360D03*
X226940Y213360D03*
X112150Y302260D03*
X129150Y302260D03*
X112150Y339090D03*
X129150Y339090D03*
D16*
X197860Y357200D03*
X197860Y374200D03*
D10*
X239400Y357050D03*
X224400Y357050D03*
X239400Y374000D03*
X224400Y374000D03*
D20*
X145140Y223430D03*
X145140Y238670D03*
D19*
X128270Y265430D03*
X113030Y265430D03*
X128270Y375920D03*
X113030Y375920D03*
X274320Y321310D03*
X259080Y321310D03*
D20*
X162860Y373490D03*
X162860Y358250D03*
D25*
X211455Y321310D03*
X205105Y321310D03*
X198755Y321310D03*
X192405Y321310D03*
X186055Y321310D03*
X179705Y321310D03*
X173355Y321310D03*
X167005Y321310D03*
X167005Y267970D03*
X173355Y267970D03*
X179705Y267970D03*
X186055Y267970D03*
X192405Y267970D03*
X198755Y267970D03*
X205105Y267970D03*
X211455Y267970D03*
D19*
X259080Y248920D03*
X274320Y248920D03*
X259080Y176530D03*
X274320Y176530D03*
X259080Y213360D03*
X274320Y213360D03*
X259080Y285750D03*
X274320Y285750D03*
M02*
