M48
;GenerationSoftware,Autodesk,EAGLE,9.6.2*%
;CreationDate,2020-10-15T12:36:58Z*%
FMAT,2
ICI,OFF
METRIC,TZ,000.000
T4C0.350
T3C0.813
T2C1.016
T1C1.321
%
G90
M71
T1
X57792Y6858
T2
X34170Y2900
X32004Y36830
X49855Y2875
X47315Y2875
X44775Y2875
X42235Y2875
X39695Y2875
X37155Y2875
X34544Y36830
X37084Y36830
X39624Y36830
X42164Y36830
X44704Y36830
X47244Y36830
X31630Y2900
T3
X3048Y4318
X3048Y6325
X3048Y8306
T4
X17680Y16751
X17863Y7377
X8449Y19726
X9208Y6115
X8400Y16100
X9400Y4800
X10900Y2400
X6600Y11600
X24276Y29435
X21866Y34091
X23230Y30875
X17474Y29397
X24106Y17680
X18782Y30485
X36395Y4995
X20508Y28204
X9840Y33560
X11230Y31930
X44100Y5200
X47845Y7205
X49845Y6665
X45845Y7745
X44000Y34700
X42400Y34800
X39300Y34700
X37100Y34700
X35700Y34700
X33200Y34700
X18842Y34201
X6563Y6536
X10300Y10000
X14800Y29200
X17600Y25000
X4860Y34320
X2590Y24060
X3800Y10700
X35200Y7985
X33600Y7985
X23176Y27342
X28734Y28575
X41834Y14041
X28734Y21431
X39870Y14141
X7342Y3145
X45900Y34600
X48431Y34781
X27605Y4880
M30